<svg width="66" height="66" viewBox="0 0 66 66" fill="none" xmlns="http://www.w3.org/2000/svg">
<rect x="0.5" y="0.5" width="65" height="65" rx="6.5" fill="#F6F6F6"/>
<rect x="0.5" y="0.5" width="65" height="65" rx="6.5" stroke="#ECECEC"/>
<g clip-path="url(#clip0_1_1866)">
<path d="M26.2458 36.4766C27.2891 36.1471 28.0901 35.5704 28.6481 34.7461C29.2065 33.9218 29.4856 32.8668 29.4856 31.5811C29.4856 30.3087 29.2065 29.2766 28.6481 28.4854C28.0897 27.6941 27.2891 27.1336 26.2458 26.8041C25.8105 26.6718 25.363 26.5856 24.9099 26.5471C24.4179 26.5011 23.8627 26.4781 23.245 26.4778H22.019V36.8029H23.2454C23.8634 36.8029 24.4186 36.7799 24.9102 36.7339C25.363 36.6951 25.8108 36.6089 26.2458 36.4766Z" fill="#054966"/>
<path d="M46.7965 30.7621C46.5585 30.461 46.2545 30.2195 45.9081 30.0568C45.1905 29.7369 44.3727 29.7369 43.6552 30.0568C43.3087 30.2195 43.0047 30.461 42.7667 30.7621C42.5031 31.1003 42.3054 31.4858 42.1841 31.898C41.9058 32.8969 41.9058 33.9541 42.1841 34.9531C42.3047 35.3648 42.5041 35.749 42.7714 36.0835C43.0129 36.3818 43.3184 36.6211 43.6648 36.7835C44.0184 36.9459 44.4031 37.0279 44.7913 37.0235C45.178 37.0282 45.5612 36.9459 45.9131 36.7835C46.2567 36.6207 46.5585 36.3814 46.7965 36.0835C47.0609 35.7479 47.2586 35.3638 47.3792 34.9531C47.6575 33.9541 47.6575 32.8969 47.3792 31.898C47.2579 31.4858 47.0602 31.1003 46.7965 30.7621Z" fill="#054966"/>
<path d="M46.7965 30.7621C46.5585 30.461 46.2545 30.2195 45.9081 30.0568C45.1905 29.7369 44.3727 29.7369 43.6552 30.0568C43.3087 30.2195 43.0047 30.461 42.7667 30.7621C42.5031 31.1003 42.3054 31.4858 42.1841 31.898C41.9058 32.8969 41.9058 33.9541 42.1841 34.9531C42.3047 35.3648 42.5041 35.749 42.7714 36.0835C43.0129 36.3818 43.3184 36.6211 43.6648 36.7835C44.0184 36.9459 44.4031 37.0279 44.7913 37.0235C45.178 37.0282 45.5612 36.9459 45.9131 36.7835C46.2567 36.6207 46.5585 36.3814 46.7965 36.0835C47.0609 35.7479 47.2586 35.3638 47.3792 34.9531C47.6575 33.9541 47.6575 32.8969 47.3792 31.898C47.2579 31.4858 47.0602 31.1003 46.7965 30.7621Z" fill="#054966"/>
<path d="M53.9846 28.3675V21.0065H32.2123C32.1624 21.0025 32.1121 21 32.061 21H22.5468C21.465 21.0032 20.5887 21.8854 20.5854 22.9749V25.0238H23.426C24.0226 25.0238 24.577 25.0486 25.0887 25.0982C25.5711 25.1424 26.0485 25.2301 26.5149 25.3605C27.2292 25.5539 27.9085 25.8611 28.5265 26.2704C29.0803 26.6401 29.5638 27.1076 29.953 27.6502C30.3359 28.1928 30.622 28.7987 30.799 29.4401C30.9906 30.1372 31.0848 30.858 31.0791 31.5813C31.0838 32.3165 30.9878 33.0485 30.794 33.7571C30.6142 34.414 30.3227 35.0346 29.9334 35.5915C29.5416 36.1435 29.0553 36.6207 28.4973 37.0008C28.3713 37.0878 28.2382 37.1679 28.1012 37.2448H30.9425V36.1036C31.1969 36.2297 31.4595 36.3375 31.7289 36.4266C32.0254 36.5258 32.3269 36.6092 32.6319 36.676C32.9427 36.7446 33.2567 36.7985 33.5739 36.8377C33.8704 36.8754 34.1687 36.8952 34.4673 36.8963C34.9023 36.8977 35.3362 36.8585 35.764 36.7791C36.1447 36.7119 36.5108 36.5793 36.8469 36.3875C37.1545 36.2081 37.4092 35.9494 37.5848 35.6386C37.766 35.322 37.8566 34.9253 37.8566 34.4488C37.8566 34.0572 37.7774 33.7341 37.6187 33.4797C37.4577 33.2228 37.2401 33.0065 36.9825 32.848C36.696 32.6719 36.3873 32.5354 36.0648 32.4416C35.7183 32.3374 35.3544 32.2396 34.9726 32.148C34.4673 32.0302 33.9739 31.8979 33.4918 31.7513C33.0326 31.6155 32.597 31.4089 32.2002 31.139C31.8223 30.8788 31.5098 30.5335 31.2875 30.1304C31.0574 29.7193 30.9425 29.1939 30.9428 28.5539C30.9428 27.8881 31.0634 27.3153 31.305 26.8356C31.5365 26.3681 31.8723 25.961 32.2858 25.6458C32.7126 25.3257 33.196 25.09 33.7102 24.9509C34.2704 24.7978 34.8488 24.722 35.4289 24.7259C36.0801 24.7216 36.7299 24.7888 37.3664 24.9268C37.9301 25.0493 38.4811 25.2247 39.0123 25.4507V26.929C38.4725 26.6998 37.9159 26.5133 37.3471 26.371C36.7445 26.2237 36.1269 26.1482 35.5067 26.146C35.0739 26.1381 34.6422 26.1924 34.2247 26.3074C33.8957 26.3979 33.5885 26.5542 33.3216 26.7677C33.0865 26.9607 32.9031 27.2097 32.7879 27.4925C32.6683 27.7929 32.6087 28.1138 32.613 28.4372C32.613 28.8224 32.6905 29.1404 32.8453 29.3916C33.0023 29.6452 33.2164 29.8583 33.4701 30.0136C33.7548 30.1871 34.0606 30.3219 34.3803 30.4149C34.7257 30.5195 35.0857 30.6176 35.46 30.7089C35.9634 30.8329 36.459 30.9698 36.9464 31.12C37.4096 31.2587 37.8488 31.4685 38.2488 31.742C38.6323 32.0097 38.9492 32.3633 39.1736 32.7751C39.4091 33.1994 39.5272 33.7445 39.5272 34.41C39.5272 35.0755 39.3995 35.6749 39.1444 36.1679C38.9299 36.5854 38.6309 36.9527 38.2659 37.2459H41.845C41.7494 37.1593 41.6581 37.0673 41.5721 36.9707C41.181 36.5215 40.8852 35.9969 40.7029 35.4284C40.4952 34.7834 40.3935 34.1089 40.4017 33.4308C40.3928 32.7488 40.4981 32.0704 40.7125 31.4236C40.9016 30.8548 41.2003 30.3291 41.5913 29.8763C41.9717 29.4444 42.4427 29.103 42.97 28.8773C43.5434 28.6359 44.1596 28.5159 44.7812 28.5248C45.4613 28.5248 46.0728 28.6423 46.6166 28.8773C47.1454 29.1012 47.6167 29.4429 47.9956 29.8763C48.3831 30.3287 48.6772 30.8548 48.8598 31.4236C49.0679 32.0718 49.1695 32.7499 49.1606 33.4308C49.1688 34.1096 49.0639 34.7848 48.8498 35.4284C48.6614 35.9961 48.3628 36.5204 47.971 36.9707C47.8843 37.068 47.7926 37.1604 47.6963 37.2477H50.0459V24.7367H51.5509V37.247H52.0236C53.1055 37.2438 53.9818 36.3616 53.985 35.2721V28.3966C53.985 28.3869 53.9846 28.3772 53.9843 28.3675H53.9846Z" fill="#054966"/>
<path d="M29.4859 31.5811C29.4859 30.3087 29.2069 29.2766 28.6485 28.4854C28.0901 27.6941 27.2894 27.1336 26.2458 26.8041C25.8105 26.6718 25.363 26.5856 24.9099 26.5471C24.4179 26.5011 23.8627 26.4781 23.245 26.4778H22.019V36.8029H23.2454C23.8634 36.8029 24.4186 36.7799 24.9102 36.7339C25.363 36.6951 25.8108 36.6089 26.2461 36.4766C27.2894 36.1471 28.0905 35.5704 28.6485 34.7461C29.2069 33.9218 29.4859 32.8668 29.4859 31.5811Z" fill="#054966"/>
<path d="M19.1425 37.2151C19.5875 36.9093 19.9511 36.4979 20.2012 36.0171C20.2968 35.8338 20.3739 35.6408 20.431 35.4418L20.4374 35.4199C20.5384 35.0494 20.588 34.6667 20.584 34.2826C20.5897 33.9045 20.5405 33.528 20.4374 33.1643C20.4349 33.1557 20.4317 33.1474 20.4292 33.1384C20.3796 32.9753 20.3132 32.8179 20.2308 32.6688C20.0053 32.2613 19.6885 31.912 19.306 31.6494C18.9053 31.3791 18.466 31.1722 18.0036 31.036C17.5162 30.8876 17.021 30.7525 16.5172 30.6303C16.1429 30.5401 15.7829 30.4434 15.4375 30.3407C15.1181 30.249 14.8123 30.1157 14.5273 29.9447C14.2743 29.7919 14.0606 29.5817 13.9028 29.3309C13.7476 29.083 13.6702 28.7693 13.6706 28.3891C13.6663 28.0697 13.7259 27.7527 13.8454 27.4566C13.9614 27.1771 14.1448 26.9313 14.3792 26.7412C14.6471 26.5306 14.954 26.3761 15.2823 26.287C15.7001 26.1738 16.1315 26.1199 16.5643 26.1278C17.184 26.13 17.8017 26.2047 18.4047 26.3499C18.9731 26.49 19.5297 26.6744 20.0699 26.9007V25.4415C19.5382 25.2183 18.9873 25.0455 18.4239 24.9248C17.787 24.7889 17.1377 24.7224 16.4865 24.7268C15.9063 24.7232 15.3283 24.7979 14.7677 24.9488C14.2543 25.0854 13.7712 25.3179 13.3434 25.6348C12.9306 25.9445 12.5948 26.3463 12.3625 26.8087C12.1206 27.2816 12 27.8472 12 28.5041C12 29.1354 12.1149 29.654 12.3447 30.06C12.568 30.4585 12.8802 30.7995 13.2574 31.055C13.6549 31.3216 14.0905 31.525 14.549 31.6591C15.0311 31.8042 15.5249 31.9347 16.0301 32.0507C16.4119 32.1409 16.7758 32.2376 17.1223 32.3404C17.4445 32.4327 17.7531 32.5675 18.04 32.7414C18.2969 32.897 18.5142 33.1104 18.6758 33.3645C18.8346 33.6153 18.9138 33.9344 18.9138 34.321C18.9138 34.7914 18.8232 35.1827 18.6419 35.495C18.4653 35.8029 18.2106 36.058 17.9041 36.2345C17.5676 36.4242 17.2015 36.555 16.8212 36.6211C16.3934 36.6998 15.9595 36.7386 15.5249 36.7368C15.2262 36.7357 14.928 36.7163 14.6314 36.679C14.3142 36.6402 14.0003 36.587 13.6895 36.5194C13.3844 36.4533 13.0829 36.3714 12.7864 36.2733C12.5174 36.1856 12.2544 36.0789 12 35.9542V37.394C12.0018 37.3951 12.0036 37.3962 12.0054 37.3973H18.8496C18.9499 37.3391 19.0491 37.2801 19.1425 37.2151Z" fill="#054966"/>
<path d="M13.5885 38.753H12.0132V38.1816H15.8478V38.753H14.2646V43.3859H13.5885V38.753Z" fill="#054966"/>
<path d="M16.2318 41.6409C16.2471 42.5597 16.8312 42.9381 17.5073 42.9381C17.9915 42.9381 18.2837 42.8533 18.5371 42.7452L18.6523 43.2317C18.414 43.3399 18.0069 43.4635 17.4149 43.4635C16.2699 43.4635 15.5859 42.7067 15.5859 41.5795C15.5859 40.4522 16.2467 39.564 17.3304 39.564C18.5446 39.564 18.8671 40.6373 18.8671 41.3243C18.8661 41.4304 18.8582 41.536 18.8443 41.6409H16.2314H16.2318ZM18.2145 41.1544C18.222 40.7221 18.0376 40.0501 17.2768 40.0501C16.5928 40.0501 16.2931 40.6833 16.2392 41.1544H18.2142H18.2145Z" fill="#054966"/>
<path d="M22.3564 43.2472C22.1798 43.3403 21.7876 43.4631 21.2881 43.4631C20.1659 43.4631 19.4363 42.6988 19.4363 41.5558C19.4363 40.4127 20.2202 39.5712 21.434 39.5712C21.7566 39.5676 22.0763 39.6333 22.3717 39.7641L22.2179 40.2891C22.0567 40.1961 21.803 40.1116 21.434 40.1116C20.5809 40.1116 20.1199 40.7448 20.1199 41.5245C20.1199 42.3895 20.6733 42.922 21.4108 42.922C21.6977 42.9234 21.9814 42.8602 22.2411 42.7369L22.3564 43.2465V43.2472Z" fill="#054966"/>
<path d="M23.1476 37.9038H23.8237V40.2359H23.8391C23.9536 40.0343 24.1213 39.8687 24.3232 39.7573C24.5331 39.6333 24.7714 39.5668 25.0147 39.5643C25.5143 39.5643 26.3132 39.8733 26.3132 41.1626V43.3865H25.637V41.2399C25.637 40.6376 25.4144 40.1281 24.7764 40.1281C24.3386 40.1281 23.9925 40.4368 23.8697 40.8076C23.833 40.9114 23.8173 41.0218 23.8237 41.1317V43.3865H23.1472V37.9042L23.1476 37.9038Z" fill="#054966"/>
<path d="M27.4125 40.6602C27.4125 40.2742 27.4047 39.9577 27.3818 39.6486H27.9813L28.0198 40.2663H28.0351C28.2196 39.911 28.6499 39.5635 29.2647 39.5635C29.7796 39.5635 30.5788 39.8725 30.5788 41.1543V43.3857H29.9023V41.2312C29.9023 40.6289 29.6797 40.1269 29.0417 40.1269C28.504 40.147 28.0805 40.5962 28.0887 41.1384V43.3854H27.4125V40.6598V40.6602Z" fill="#054966"/>
<path d="M35.0433 41.4863C35.0433 42.8683 34.0903 43.4709 33.1912 43.4709C32.1846 43.4709 31.4082 42.7296 31.4082 41.5481C31.4082 40.2972 32.2228 39.5635 33.2525 39.5635C34.3205 39.5635 35.043 40.3436 35.043 41.4863H35.0433ZM32.0922 41.5244C32.0922 42.3429 32.561 42.9606 33.2218 42.9606C33.8827 42.9606 34.3515 42.3508 34.3515 41.5089C34.3515 40.8758 34.0368 40.0727 33.2372 40.0727C32.4376 40.0727 32.0922 40.8143 32.0922 41.5247V41.5244Z" fill="#054966"/>
<path d="M35.8958 37.9038H36.5723V43.3862H35.8958V37.9038Z" fill="#054966"/>
<path d="M41.0753 41.4863C41.0753 42.8683 40.1223 43.4709 39.2231 43.4709C38.2166 43.4709 37.4402 42.7296 37.4402 41.5481C37.4402 40.2972 38.2548 39.5635 39.2845 39.5635C40.3528 39.5635 41.0753 40.3436 41.0753 41.4863ZM38.1242 41.5244C38.1242 42.3429 38.593 42.9606 39.2538 42.9606C39.9146 42.9606 40.3835 42.3508 40.3835 41.5089C40.3835 40.8758 40.0688 40.0727 39.2692 40.0727C38.4696 40.0727 38.1242 40.8143 38.1242 41.5247V41.5244Z" fill="#054966"/>
<path d="M45.1323 39.6488C45.117 39.919 45.1016 40.2201 45.1016 40.6757V42.8454C45.1016 43.7024 44.9325 44.2278 44.5714 44.5519C44.2103 44.8915 43.6876 44.9996 43.2188 44.9996C42.7499 44.9996 42.2811 44.8915 41.9817 44.691L42.1505 44.1735C42.4809 44.3697 42.858 44.4714 43.2416 44.4671C43.9331 44.4671 44.4405 44.1042 44.4405 43.162V42.7452H44.4251C44.2175 43.0926 43.8178 43.3708 43.2416 43.3708C42.3196 43.3708 41.6584 42.5831 41.6584 41.5486C41.6584 40.2823 42.4805 39.564 43.3337 39.564C43.9791 39.564 44.3324 39.9039 44.494 40.2126H44.5093L44.54 39.6488H45.132H45.1323ZM44.4333 41.1235C44.4373 41.0193 44.4241 40.9147 44.3948 40.8148C44.2717 40.4213 43.9413 40.0965 43.4496 40.0965C42.8042 40.0965 42.3432 40.6448 42.3432 41.5094C42.3432 42.2428 42.7125 42.853 43.4421 42.853C43.8714 42.8508 44.2499 42.5702 44.3798 42.158C44.4166 42.0405 44.4344 41.918 44.4337 41.7951V41.1231L44.4333 41.1235Z" fill="#054966"/>
<path d="M46.9306 38.5983C46.9384 38.8301 46.7693 39.0152 46.5003 39.0152C46.2783 39.0184 46.096 38.8398 46.0931 38.6163C46.0931 38.6102 46.0931 38.6041 46.0931 38.5983C46.0874 38.3694 46.2673 38.1793 46.4946 38.1736C46.5017 38.1736 46.5088 38.1736 46.516 38.1736C46.7372 38.1657 46.9231 38.3396 46.9309 38.5628C46.9313 38.5746 46.9309 38.5865 46.9309 38.5983H46.9306ZM46.1774 43.3861V39.649H46.8535V43.3861H46.1774Z" fill="#054966"/>
<path d="M48.3521 41.6409C48.3675 42.5597 48.9516 42.9381 49.6277 42.9381C50.1119 42.9381 50.4041 42.8533 50.6574 42.7452L50.7727 43.2317C50.5343 43.3399 50.1269 43.4635 49.5353 43.4635C48.3903 43.4635 47.7063 42.7067 47.7063 41.5795C47.7063 40.4522 48.3671 39.564 49.4507 39.564C50.6649 39.564 50.9878 40.6373 50.9878 41.3243C50.9868 41.4304 50.9789 41.536 50.9647 41.6409H48.3518H48.3521ZM50.3345 41.1544C50.342 40.7221 50.1579 40.0501 49.3968 40.0501C48.7128 40.0501 48.4131 40.6833 48.3596 41.1544H50.3345Z" fill="#054966"/>
<path d="M51.7332 42.6909C52.0012 42.8594 52.3088 42.9525 52.6245 42.9611C53.1166 42.9611 53.3471 42.7139 53.3471 42.4052C53.3471 42.0811 53.1551 41.9032 52.6556 41.7178C51.9869 41.4785 51.6719 41.108 51.6719 40.6599C51.6719 40.0577 52.156 39.5636 52.9553 39.5636C53.2746 39.5603 53.5897 39.6401 53.8698 39.7953L53.7007 40.2894C53.4719 40.1479 53.2086 40.0727 52.9399 40.0731C52.5403 40.0731 52.3177 40.3049 52.3177 40.583C52.3177 40.8917 52.5403 41.0307 53.0245 41.2162C53.67 41.4634 54.0004 41.7875 54.0004 42.3434C54.0004 42.9999 53.4933 43.4631 52.6095 43.4631C52.2024 43.4631 51.8256 43.3628 51.5645 43.2083L51.7336 42.6909H51.7332Z" fill="#054966"/>
</g>
<defs>
<clipPath id="clip0_1_1866">
<rect width="42" height="24" fill="white" transform="translate(12 21)"/>
</clipPath>
</defs>
</svg>
