<svg width="96" height="96" viewBox="0 0 96 96" fill="none" xmlns="http://www.w3.org/2000/svg">
<rect x="0.5" y="0.5" width="95" height="95" rx="47.5" fill="#F6F6F6" stroke="#ECECEC"/>
<g clip-path="url(#clip0_899_2319)">
<path d="M41.2458 51.4766C42.2891 51.1471 43.0901 50.5704 43.6481 49.7461C44.2065 48.9218 44.4856 47.8668 44.4856 46.5811C44.4856 45.3087 44.2065 44.2766 43.6481 43.4854C43.0897 42.6941 42.2891 42.1336 41.2458 41.8041C40.8105 41.6718 40.363 41.5856 39.9099 41.5471C39.4179 41.5011 38.8627 41.4781 38.245 41.4778H37.019V51.8029H38.2454C38.8634 51.8029 39.4186 51.7799 39.9102 51.7339C40.363 51.6951 40.8108 51.6089 41.2458 51.4766Z" fill="#054966"/>
<path d="M61.7965 45.7621C61.5585 45.461 61.2545 45.2195 60.9081 45.0568C60.1905 44.7369 59.3727 44.7369 58.6552 45.0568C58.3087 45.2195 58.0047 45.461 57.7667 45.7621C57.5031 46.1003 57.3054 46.4858 57.1841 46.898C56.9058 47.8969 56.9058 48.9541 57.1841 49.9531C57.3047 50.3648 57.5041 50.749 57.7714 51.0835C58.0129 51.3818 58.3184 51.6211 58.6648 51.7835C59.0184 51.9459 59.4031 52.0279 59.7913 52.0235C60.178 52.0282 60.5612 51.9459 60.9131 51.7835C61.2567 51.6207 61.5585 51.3814 61.7965 51.0835C62.0609 50.7479 62.2586 50.3638 62.3792 49.9531C62.6575 48.9541 62.6575 47.8969 62.3792 46.898C62.2579 46.4858 62.0602 46.1003 61.7965 45.7621Z" fill="#054966"/>
<path d="M61.7965 45.7621C61.5585 45.461 61.2545 45.2195 60.9081 45.0568C60.1905 44.7369 59.3727 44.7369 58.6552 45.0568C58.3087 45.2195 58.0047 45.461 57.7667 45.7621C57.5031 46.1003 57.3054 46.4858 57.1841 46.898C56.9058 47.8969 56.9058 48.9541 57.1841 49.9531C57.3047 50.3648 57.5041 50.749 57.7714 51.0835C58.0129 51.3818 58.3184 51.6211 58.6648 51.7835C59.0184 51.9459 59.4031 52.0279 59.7913 52.0235C60.178 52.0282 60.5612 51.9459 60.9131 51.7835C61.2567 51.6207 61.5585 51.3814 61.7965 51.0835C62.0609 50.7479 62.2586 50.3638 62.3792 49.9531C62.6575 48.9541 62.6575 47.8969 62.3792 46.898C62.2579 46.4858 62.0602 46.1003 61.7965 45.7621Z" fill="#054966"/>
<path d="M68.9846 43.3675V36.0065H47.2123C47.1624 36.0025 47.1121 36 47.061 36H37.5468C36.465 36.0032 35.5887 36.8854 35.5854 37.9749V40.0238H38.426C39.0226 40.0238 39.577 40.0486 40.0887 40.0982C40.5711 40.1424 41.0485 40.2301 41.5149 40.3605C42.2292 40.5539 42.9085 40.8611 43.5265 41.2704C44.0803 41.6401 44.5638 42.1076 44.953 42.6502C45.3359 43.1928 45.622 43.7987 45.799 44.4401C45.9906 45.1372 46.0848 45.858 46.0791 46.5813C46.0838 47.3165 45.9878 48.0485 45.794 48.7571C45.6142 49.414 45.3227 50.0346 44.9334 50.5915C44.5416 51.1435 44.0553 51.6207 43.4973 52.0008C43.3713 52.0878 43.2382 52.1679 43.1012 52.2448H45.9425V51.1036C46.1969 51.2297 46.4595 51.3375 46.7289 51.4266C47.0254 51.5258 47.3269 51.6092 47.6319 51.676C47.9427 51.7446 48.2567 51.7985 48.5739 51.8377C48.8704 51.8754 49.1687 51.8952 49.4673 51.8963C49.9023 51.8977 50.3362 51.8585 50.764 51.7791C51.1447 51.7119 51.5108 51.5793 51.8469 51.3875C52.1545 51.2081 52.4092 50.9494 52.5848 50.6386C52.766 50.322 52.8566 49.9253 52.8566 49.4488C52.8566 49.0572 52.7774 48.7341 52.6187 48.4797C52.4577 48.2228 52.2401 48.0065 51.9825 47.848C51.696 47.6719 51.3873 47.5354 51.0648 47.4416C50.7183 47.3374 50.3544 47.2396 49.9726 47.148C49.4673 47.0302 48.9739 46.8979 48.4918 46.7513C48.0326 46.6155 47.597 46.4089 47.2002 46.139C46.8223 45.8788 46.5098 45.5335 46.2875 45.1304C46.0574 44.7193 45.9425 44.1939 45.9428 43.5539C45.9428 42.8881 46.0634 42.3153 46.305 41.8356C46.5365 41.3681 46.8723 40.961 47.2858 40.6458C47.7126 40.3257 48.196 40.09 48.7102 39.9509C49.2704 39.7978 49.8488 39.722 50.4289 39.7259C51.0801 39.7216 51.7299 39.7888 52.3664 39.9268C52.9301 40.0493 53.4811 40.2247 54.0123 40.4507V41.929C53.4725 41.6998 52.9159 41.5133 52.3471 41.371C51.7445 41.2237 51.1269 41.1482 50.5067 41.146C50.0739 41.1381 49.6422 41.1924 49.2247 41.3074C48.8957 41.3979 48.5885 41.5542 48.3216 41.7677C48.0865 41.9607 47.9031 42.2097 47.7879 42.4925C47.6683 42.7929 47.6087 43.1138 47.613 43.4372C47.613 43.8224 47.6905 44.1404 47.8453 44.3916C48.0023 44.6452 48.2164 44.8583 48.4701 45.0136C48.7548 45.1871 49.0606 45.3219 49.3803 45.4149C49.7257 45.5195 50.0857 45.6176 50.46 45.7089C50.9634 45.8329 51.459 45.9698 51.9464 46.12C52.4096 46.2587 52.8488 46.4685 53.2488 46.742C53.6323 47.0097 53.9492 47.3633 54.1736 47.7751C54.4091 48.1994 54.5272 48.7445 54.5272 49.41C54.5272 50.0755 54.3995 50.6749 54.1444 51.1679C53.9299 51.5854 53.6309 51.9527 53.2659 52.2459H56.845C56.7494 52.1593 56.6581 52.0673 56.5721 51.9707C56.181 51.5215 55.8852 50.9969 55.7029 50.4284C55.4952 49.7834 55.3935 49.1089 55.4017 48.4308C55.3928 47.7488 55.4981 47.0704 55.7125 46.4236C55.9016 45.8548 56.2003 45.3291 56.5913 44.8763C56.9717 44.4444 57.4427 44.103 57.97 43.8773C58.5434 43.6359 59.1596 43.5159 59.7812 43.5248C60.4613 43.5248 61.0728 43.6423 61.6166 43.8773C62.1454 44.1012 62.6167 44.4429 62.9956 44.8763C63.3831 45.3287 63.6772 45.8548 63.8598 46.4236C64.0679 47.0718 64.1695 47.7499 64.1606 48.4308C64.1688 49.1096 64.0639 49.7848 63.8498 50.4284C63.6614 50.9961 63.3628 51.5204 62.971 51.9707C62.8843 52.068 62.7926 52.1604 62.6963 52.2477H65.0459V39.7367H66.5509V52.247H67.0236C68.1055 52.2438 68.9818 51.3616 68.985 50.2721V43.3966C68.985 43.3869 68.9846 43.3772 68.9843 43.3675H68.9846Z" fill="#054966"/>
<path d="M44.4859 46.5811C44.4859 45.3087 44.2069 44.2766 43.6485 43.4854C43.0901 42.6941 42.2894 42.1336 41.2458 41.8041C40.8105 41.6718 40.363 41.5856 39.9099 41.5471C39.4179 41.5011 38.8627 41.4781 38.245 41.4778H37.019V51.8029H38.2454C38.8634 51.8029 39.4186 51.7799 39.9102 51.7339C40.363 51.6951 40.8108 51.6089 41.2461 51.4766C42.2894 51.1471 43.0905 50.5704 43.6485 49.7461C44.2069 48.9218 44.4859 47.8668 44.4859 46.5811Z" fill="#054966"/>
<path d="M34.1425 52.2151C34.5875 51.9093 34.9511 51.4979 35.2012 51.0171C35.2968 50.8338 35.3739 50.6408 35.431 50.4418L35.4374 50.4199C35.5384 50.0494 35.588 49.6667 35.584 49.2826C35.5897 48.9045 35.5405 48.528 35.4374 48.1643C35.4349 48.1557 35.4317 48.1474 35.4292 48.1384C35.3796 47.9753 35.3132 47.8179 35.2308 47.6688C35.0053 47.2613 34.6885 46.912 34.306 46.6494C33.9053 46.3791 33.466 46.1722 33.0036 46.036C32.5162 45.8876 32.021 45.7525 31.5172 45.6303C31.1429 45.5401 30.7829 45.4434 30.4375 45.3407C30.1181 45.249 29.8123 45.1157 29.5273 44.9447C29.2743 44.7919 29.0606 44.5817 28.9028 44.3309C28.7476 44.083 28.6702 43.7693 28.6706 43.3891C28.6663 43.0697 28.7259 42.7527 28.8454 42.4566C28.9614 42.1771 29.1448 41.9313 29.3792 41.7412C29.6471 41.5306 29.954 41.3761 30.2823 41.287C30.7001 41.1738 31.1315 41.1199 31.5643 41.1278C32.184 41.13 32.8017 41.2047 33.4047 41.3499C33.9731 41.49 34.5297 41.6744 35.0699 41.9007V40.4415C34.5382 40.2183 33.9873 40.0455 33.4239 39.9248C32.787 39.7889 32.1377 39.7224 31.4865 39.7268C30.9063 39.7232 30.3283 39.7979 29.7677 39.9488C29.2543 40.0854 28.7712 40.3179 28.3434 40.6348C27.9306 40.9445 27.5948 41.3463 27.3625 41.8087C27.1206 42.2816 27 42.8472 27 43.5041C27 44.1354 27.1149 44.654 27.3447 45.06C27.568 45.4585 27.8802 45.7995 28.2574 46.055C28.6549 46.3216 29.0905 46.525 29.549 46.6591C30.0311 46.8042 30.5249 46.9347 31.0301 47.0507C31.4119 47.1409 31.7758 47.2376 32.1223 47.3404C32.4445 47.4327 32.7531 47.5675 33.04 47.7414C33.2969 47.897 33.5142 48.1104 33.6758 48.3645C33.8346 48.6153 33.9138 48.9344 33.9138 49.321C33.9138 49.7914 33.8232 50.1827 33.6419 50.495C33.4653 50.8029 33.2106 51.058 32.9041 51.2345C32.5676 51.4242 32.2015 51.555 31.8212 51.6211C31.3934 51.6998 30.9595 51.7386 30.5249 51.7368C30.2262 51.7357 29.928 51.7163 29.6314 51.679C29.3142 51.6402 29.0003 51.587 28.6895 51.5194C28.3844 51.4533 28.0829 51.3714 27.7864 51.2733C27.5174 51.1856 27.2544 51.0789 27 50.9542V52.394C27.0018 52.3951 27.0036 52.3962 27.0054 52.3973H33.8496C33.9499 52.3391 34.0491 52.2801 34.1425 52.2151Z" fill="#054966"/>
<path d="M28.5885 53.753H27.0132V53.1816H30.8478V53.753H29.2646V58.3859H28.5885V53.753Z" fill="#054966"/>
<path d="M31.2318 56.6409C31.2471 57.5597 31.8312 57.9381 32.5073 57.9381C32.9915 57.9381 33.2837 57.8533 33.5371 57.7452L33.6523 58.2317C33.414 58.3399 33.0069 58.4635 32.4149 58.4635C31.2699 58.4635 30.5859 57.7067 30.5859 56.5795C30.5859 55.4522 31.2467 54.564 32.3304 54.564C33.5446 54.564 33.8671 55.6373 33.8671 56.3243C33.8661 56.4304 33.8582 56.536 33.8443 56.6409H31.2314H31.2318ZM33.2145 56.1544C33.222 55.7221 33.0376 55.0501 32.2768 55.0501C31.5928 55.0501 31.2931 55.6833 31.2392 56.1544H33.2142H33.2145Z" fill="#054966"/>
<path d="M37.3564 58.2472C37.1798 58.3403 36.7876 58.4631 36.2881 58.4631C35.1659 58.4631 34.4363 57.6988 34.4363 56.5558C34.4363 55.4127 35.2202 54.5712 36.434 54.5712C36.7566 54.5676 37.0763 54.6333 37.3717 54.7641L37.2179 55.2891C37.0567 55.1961 36.803 55.1116 36.434 55.1116C35.5809 55.1116 35.1199 55.7448 35.1199 56.5245C35.1199 57.3895 35.6733 57.922 36.4108 57.922C36.6977 57.9234 36.9814 57.8602 37.2411 57.7369L37.3564 58.2465V58.2472Z" fill="#054966"/>
<path d="M38.1476 52.9038H38.8237V55.2359H38.8391C38.9536 55.0343 39.1213 54.8687 39.3232 54.7573C39.5331 54.6333 39.7714 54.5668 40.0147 54.5643C40.5143 54.5643 41.3132 54.8733 41.3132 56.1626V58.3865H40.637V56.2399C40.637 55.6376 40.4144 55.1281 39.7764 55.1281C39.3386 55.1281 38.9925 55.4368 38.8697 55.8076C38.833 55.9114 38.8173 56.0218 38.8237 56.1317V58.3865H38.1472V52.9042L38.1476 52.9038Z" fill="#054966"/>
<path d="M42.4125 55.6602C42.4125 55.2742 42.4047 54.9577 42.3818 54.6486H42.9813L43.0198 55.2663H43.0351C43.2196 54.911 43.6499 54.5635 44.2647 54.5635C44.7796 54.5635 45.5788 54.8725 45.5788 56.1543V58.3857H44.9023V56.2312C44.9023 55.6289 44.6797 55.1269 44.0417 55.1269C43.504 55.147 43.0805 55.5962 43.0887 56.1384V58.3854H42.4125V55.6598V55.6602Z" fill="#054966"/>
<path d="M50.0433 56.4863C50.0433 57.8683 49.0903 58.4709 48.1912 58.4709C47.1846 58.4709 46.4082 57.7296 46.4082 56.5481C46.4082 55.2972 47.2228 54.5635 48.2525 54.5635C49.3205 54.5635 50.043 55.3436 50.043 56.4863H50.0433ZM47.0922 56.5244C47.0922 57.3429 47.561 57.9606 48.2218 57.9606C48.8827 57.9606 49.3515 57.3508 49.3515 56.5089C49.3515 55.8758 49.0368 55.0727 48.2372 55.0727C47.4376 55.0727 47.0922 55.8143 47.0922 56.5247V56.5244Z" fill="#054966"/>
<path d="M50.8958 52.9038H51.5723V58.3862H50.8958V52.9038Z" fill="#054966"/>
<path d="M56.0753 56.4863C56.0753 57.8683 55.1223 58.4709 54.2231 58.4709C53.2166 58.4709 52.4402 57.7296 52.4402 56.5481C52.4402 55.2972 53.2548 54.5635 54.2845 54.5635C55.3528 54.5635 56.0753 55.3436 56.0753 56.4863ZM53.1242 56.5244C53.1242 57.3429 53.593 57.9606 54.2538 57.9606C54.9146 57.9606 55.3835 57.3508 55.3835 56.5089C55.3835 55.8758 55.0688 55.0727 54.2692 55.0727C53.4696 55.0727 53.1242 55.8143 53.1242 56.5247V56.5244Z" fill="#054966"/>
<path d="M60.1323 54.6488C60.117 54.919 60.1016 55.2201 60.1016 55.6757V57.8454C60.1016 58.7024 59.9325 59.2278 59.5714 59.5519C59.2103 59.8915 58.6876 59.9996 58.2188 59.9996C57.7499 59.9996 57.2811 59.8915 56.9817 59.691L57.1505 59.1735C57.4809 59.3697 57.858 59.4714 58.2416 59.4671C58.9331 59.4671 59.4405 59.1042 59.4405 58.162V57.7452H59.4251C59.2175 58.0926 58.8178 58.3708 58.2416 58.3708C57.3196 58.3708 56.6584 57.5831 56.6584 56.5486C56.6584 55.2823 57.4805 54.564 58.3337 54.564C58.9791 54.564 59.3324 54.9039 59.494 55.2126H59.5093L59.54 54.6488H60.132H60.1323ZM59.4333 56.1235C59.4373 56.0193 59.4241 55.9147 59.3948 55.8148C59.2717 55.4213 58.9413 55.0965 58.4496 55.0965C57.8042 55.0965 57.3432 55.6448 57.3432 56.5094C57.3432 57.2428 57.7125 57.853 58.4421 57.853C58.8714 57.8508 59.2499 57.5702 59.3798 57.158C59.4166 57.0405 59.4344 56.918 59.4337 56.7951V56.1231L59.4333 56.1235Z" fill="#054966"/>
<path d="M61.9306 53.5983C61.9384 53.8301 61.7693 54.0152 61.5003 54.0152C61.2783 54.0184 61.096 53.8398 61.0931 53.6163C61.0931 53.6102 61.0931 53.6041 61.0931 53.5983C61.0874 53.3694 61.2673 53.1793 61.4946 53.1736C61.5017 53.1736 61.5088 53.1736 61.516 53.1736C61.7372 53.1657 61.9231 53.3396 61.9309 53.5628C61.9313 53.5746 61.9309 53.5865 61.9309 53.5983H61.9306ZM61.1774 58.3861V54.649H61.8535V58.3861H61.1774Z" fill="#054966"/>
<path d="M63.3521 56.6409C63.3675 57.5597 63.9516 57.9381 64.6277 57.9381C65.1119 57.9381 65.4041 57.8533 65.6574 57.7452L65.7727 58.2317C65.5343 58.3399 65.1269 58.4635 64.5353 58.4635C63.3903 58.4635 62.7063 57.7067 62.7063 56.5795C62.7063 55.4522 63.3671 54.564 64.4507 54.564C65.6649 54.564 65.9878 55.6373 65.9878 56.3243C65.9868 56.4304 65.9789 56.536 65.9647 56.6409H63.3518H63.3521ZM65.3345 56.1544C65.342 55.7221 65.1579 55.0501 64.3968 55.0501C63.7128 55.0501 63.4131 55.6833 63.3596 56.1544H65.3345Z" fill="#054966"/>
<path d="M66.7332 57.6909C67.0012 57.8594 67.3088 57.9525 67.6245 57.9611C68.1166 57.9611 68.3471 57.7139 68.3471 57.4052C68.3471 57.0811 68.1551 56.9032 67.6556 56.7178C66.9869 56.4785 66.6719 56.108 66.6719 55.6599C66.6719 55.0577 67.156 54.5636 67.9553 54.5636C68.2746 54.5603 68.5897 54.6401 68.8698 54.7953L68.7007 55.2894C68.4719 55.1479 68.2086 55.0727 67.9399 55.0731C67.5403 55.0731 67.3177 55.3049 67.3177 55.583C67.3177 55.8917 67.5403 56.0307 68.0245 56.2162C68.67 56.4634 69.0004 56.7875 69.0004 57.3434C69.0004 57.9999 68.4933 58.4631 67.6095 58.4631C67.2024 58.4631 66.8256 58.3628 66.5645 58.2083L66.7336 57.6909H66.7332Z" fill="#054966"/>
</g>
<defs>
<clipPath id="clip0_899_2319">
<rect width="42" height="24" fill="white" transform="translate(27 36)"/>
</clipPath>
</defs>
</svg>
