<svg width="32" height="33" viewBox="0 0 32 33" fill="none" xmlns="http://www.w3.org/2000/svg">
<path d="M7.02523 15C7.02193 13.8193 7.25164 12.6495 7.70121 11.5577C8.15077 10.4659 8.81135 9.47349 9.6451 8.63742C10.4788 7.80134 11.4694 7.13799 12.5599 6.68538C13.6505 6.23277 14.8196 5.99979 16.0003 5.99979C17.1811 5.99979 18.3502 6.23277 19.4408 6.68538C20.5313 7.13799 21.5218 7.80134 22.3556 8.63742C23.1893 9.47349 23.8499 10.4659 24.2995 11.5577C24.749 12.6495 24.9788 13.8193 24.9755 15V15C24.9755 19.477 25.9121 22.0749 26.7371 23.4948C26.826 23.6465 26.8732 23.819 26.8742 23.9948C26.8751 24.1706 26.8297 24.3436 26.7424 24.4962C26.6552 24.6489 26.5292 24.7759 26.3773 24.8643C26.2253 24.9527 26.0527 24.9996 25.8769 25H6.1228C5.94695 24.9996 5.77433 24.9527 5.62235 24.8643C5.47038 24.7758 5.34442 24.6488 5.25719 24.4961C5.16995 24.3434 5.12453 24.1704 5.1255 23.9946C5.12647 23.8188 5.1738 23.6463 5.26272 23.4946C6.08813 22.0746 7.02522 19.4767 7.02522 15H7.02523Z" stroke="#18191C" stroke-width="1.5" stroke-linecap="round" stroke-linejoin="round"/>
<path d="M12 25V26C12 27.0609 12.4214 28.0783 13.1716 28.8284C13.9217 29.5786 14.9391 30 16 30C17.0609 30 18.0783 29.5786 18.8284 28.8284C19.5786 28.0783 20 27.0609 20 26V25" stroke="#18191C" stroke-width="1.5" stroke-linecap="round" stroke-linejoin="round"/>
<path d="M22.9292 3.99854C24.964 5.28311 26.6043 7.10497 27.669 9.26299" stroke="#18191C" stroke-width="1.5" stroke-linecap="round" stroke-linejoin="round"/>
<path d="M4.33105 9.26299C5.39575 7.10497 7.03604 5.28311 9.07087 3.99854" stroke="#18191C" stroke-width="1.5" stroke-linecap="round" stroke-linejoin="round"/>
<circle cx="18" cy="7" r="6" fill="#E05151" stroke="white" stroke-width="2"/>
</svg>
