<svg width="32" height="33" viewBox="0 0 32 33" fill="none" xmlns="http://www.w3.org/2000/svg">
<path d="M7.02547 15C7.02217 13.8192 7.25189 12.6494 7.70145 11.5576C8.15102 10.4658 8.81159 9.47346 9.64534 8.63738C10.4791 7.80131 11.4696 7.13796 12.5602 6.68535C13.6507 6.23274 14.8198 5.99976 16.0006 5.99976C17.1813 5.99976 18.3505 6.23274 19.441 6.68535C20.5316 7.13796 21.5221 7.80131 22.3558 8.63738C23.1896 9.47346 23.8502 10.4658 24.2997 11.5576C24.7493 12.6494 24.979 13.8192 24.9757 15V15C24.9757 19.4769 25.9124 22.0748 26.7373 23.4947C26.8262 23.6465 26.8735 23.8189 26.8744 23.9948C26.8754 24.1706 26.8299 24.3435 26.7427 24.4962C26.6554 24.6489 26.5295 24.7758 26.3775 24.8643C26.2256 24.9527 26.053 24.9995 25.8771 25H6.12304C5.9472 24.9995 5.77458 24.9527 5.6226 24.8642C5.47062 24.7758 5.34466 24.6488 5.25743 24.4961C5.1702 24.3434 5.12478 24.1704 5.12575 23.9946C5.12672 23.8187 5.17405 23.6462 5.26296 23.4945C6.08837 22.0746 7.02546 19.4767 7.02546 15H7.02547Z" stroke="#18191C" stroke-width="1.5" stroke-linecap="round" stroke-linejoin="round"/>
<path d="M12 25V26C12 27.0609 12.4214 28.0783 13.1716 28.8284C13.9217 29.5786 14.9391 30 16 30C17.0609 30 18.0783 29.5786 18.8284 28.8284C19.5786 28.0783 20 27.0609 20 26V25" stroke="#18191C" stroke-width="1.5" stroke-linecap="round" stroke-linejoin="round"/>
<path d="M22.929 3.99854C24.9638 5.28311 26.6041 7.10497 27.6688 9.26299" stroke="#18191C" stroke-width="1.5" stroke-linecap="round" stroke-linejoin="round"/>
<path d="M4.33105 9.26299C5.39575 7.10497 7.03604 5.28311 9.07087 3.99854" stroke="#18191C" stroke-width="1.5" stroke-linecap="round" stroke-linejoin="round"/>
<circle cx="18" cy="7" r="6" fill="#E05151" stroke="white" stroke-width="2"/>
</svg>
