<svg width="33" height="32" viewBox="0 0 33 32" fill="none" xmlns="http://www.w3.org/2000/svg">
<g clip-path="url(#clip0_3_4282)">
<path opacity="0.2" d="M16.5 19.0001C12.2872 19.0067 8.14764 17.8992 4.50098 15.7899V26.0001C4.50098 26.1314 4.52684 26.2614 4.5771 26.3828C4.62735 26.5041 4.70101 26.6143 4.79387 26.7072C4.88673 26.8001 4.99697 26.8737 5.11829 26.924C5.23962 26.9742 5.36965 27.0001 5.50098 27.0001H27.501C27.6323 27.0001 27.7623 26.9742 27.8837 26.924C28.005 26.8737 28.1152 26.8001 28.2081 26.7072C28.3009 26.6143 28.3746 26.5041 28.4249 26.3828C28.4751 26.2614 28.501 26.1314 28.501 26.0001V15.7887C24.8539 17.8988 20.7135 19.0067 16.5 19.0001Z" fill="#0A65CC"/>
<path d="M27.501 9.00003H5.50098C4.94869 9.00003 4.50098 9.44775 4.50098 10V26C4.50098 26.5523 4.94869 27 5.50098 27H27.501C28.0533 27 28.501 26.5523 28.501 26V10C28.501 9.44775 28.0533 9.00003 27.501 9.00003Z" stroke="#0A65CC" stroke-width="1.5" stroke-linecap="round" stroke-linejoin="round"/>
<path d="M21.5 9V7C21.5 6.46957 21.2893 5.96086 20.9142 5.58579C20.5391 5.21071 20.0304 5 19.5 5H13.5C12.9696 5 12.4609 5.21071 12.0858 5.58579C11.7107 5.96086 11.5 6.46957 11.5 7V9" stroke="#0A65CC" stroke-width="1.5" stroke-linecap="round" stroke-linejoin="round"/>
<path d="M28.501 15.7888C24.8539 17.8988 20.7136 19.0068 16.5 19.0001C12.2872 19.0068 8.14755 17.8992 4.50085 15.7898" stroke="#0A65CC" stroke-width="1.5" stroke-linecap="round" stroke-linejoin="round"/>
<path d="M15 15H18" stroke="#0A65CC" stroke-width="1.5" stroke-linecap="round" stroke-linejoin="round"/>
</g>
<defs>
<clipPath id="clip0_3_4282">
<rect width="32" height="32" fill="white" transform="translate(0.5)"/>
</clipPath>
</defs>
</svg>
