<svg width="24" height="24" viewBox="0 0 24 24" fill="none" xmlns="http://www.w3.org/2000/svg">
<path d="M12 13.125C12.6213 13.125 13.125 12.6213 13.125 12C13.125 11.3787 12.6213 10.875 12 10.875C11.3787 10.875 10.875 11.3787 10.875 12C10.875 12.6213 11.3787 13.125 12 13.125Z" fill="#18191C" stroke="#18191C"/>
<path d="M12 6.65C12.6213 6.65 13.125 6.14632 13.125 5.525C13.125 4.90368 12.6213 4.4 12 4.4C11.3787 4.4 10.875 4.90368 10.875 5.525C10.875 6.14632 11.3787 6.65 12 6.65Z" fill="#18191C" stroke="#18191C"/>
<path d="M12 19.61C12.6213 19.61 13.125 19.1063 13.125 18.485C13.125 17.8637 12.6213 17.36 12 17.36C11.3787 17.36 10.875 17.8637 10.875 18.485C10.875 19.1063 11.3787 19.61 12 19.61Z" fill="#18191C" stroke="#18191C"/>
</svg>
