<svg width="20" height="21" viewBox="0 0 20 21" fill="none" xmlns="http://www.w3.org/2000/svg">
<path d="M8.33325 11.3332C8.69113 11.8117 9.14772 12.2075 9.67204 12.494C10.1964 12.7805 10.7762 12.9508 11.3721 12.9935C11.9681 13.0362 12.5662 12.9502 13.126 12.7414C13.6858 12.5326 14.1942 12.2058 14.6166 11.7832L17.1166 9.28322C17.8756 8.49738 18.2956 7.44487 18.2861 6.35238C18.2766 5.2599 17.8384 4.21485 17.0658 3.44231C16.2933 2.66978 15.2482 2.23157 14.1558 2.22208C13.0633 2.21259 12.0108 2.63256 11.2249 3.39156L9.79159 4.81656" stroke="#0066FF" stroke-width="1.5" stroke-linecap="round" stroke-linejoin="round"/>
<path d="M11.6666 9.66677C11.3087 9.18833 10.8521 8.79245 10.3278 8.50599C9.80347 8.21953 9.22367 8.04918 8.62771 8.00649C8.03176 7.96381 7.4336 8.0498 6.8738 8.25862C6.314 8.46744 5.80566 8.79421 5.38326 9.21677L2.88326 11.7168C2.12426 12.5026 1.70429 13.5551 1.71378 14.6476C1.72327 15.7401 2.16148 16.7851 2.93401 17.5577C3.70655 18.3302 4.7516 18.7684 5.84408 18.7779C6.93657 18.7874 7.98908 18.3674 8.77492 17.6084L10.1999 16.1834" stroke="#0066FF" stroke-width="1.5" stroke-linecap="round" stroke-linejoin="round"/>
</svg>
