<svg width="20" height="21" viewBox="0 0 20 21" fill="none" xmlns="http://www.w3.org/2000/svg">
<path fill-rule="evenodd" clip-rule="evenodd" d="M10.9091 2.21608H2.72727C1.97416 2.21608 1.36364 2.8266 1.36364 3.57972V11.7615C1.36364 12.5147 1.97416 13.1252 2.72727 13.1252H10.9091C11.6622 13.1252 12.2727 12.5147 12.2727 11.7615V3.57972C12.2727 2.8266 11.6622 2.21608 10.9091 2.21608ZM2.72727 0.852448C1.22104 0.852448 0 2.07349 0 3.57972V11.7615C0 13.2678 1.22104 14.4888 2.72727 14.4888H10.9091C12.4153 14.4888 13.6364 13.2678 13.6364 11.7615V3.57972C13.6364 2.07349 12.4153 0.852448 10.9091 0.852448H2.72727Z" fill="black"/>
<path d="M6.36377 9.94337C6.36377 8.43714 7.58481 7.21609 9.09104 7.21609H17.2729C18.7791 7.21609 20.0001 8.43714 20.0001 9.94337V18.1252C20.0001 19.6314 18.7791 20.8525 17.2729 20.8525H9.09104C7.58481 20.8525 6.36377 19.6314 6.36377 18.1252V9.94337Z" fill="white"/>
<path fill-rule="evenodd" clip-rule="evenodd" d="M17.2729 8.57973H9.09104C8.33793 8.57973 7.72741 9.19025 7.72741 9.94337V18.1252C7.72741 18.8783 8.33793 19.4888 9.09104 19.4888H17.2729C18.026 19.4888 18.6365 18.8783 18.6365 18.1252V9.94337C18.6365 9.19025 18.026 8.57973 17.2729 8.57973ZM9.09104 7.21609C7.58481 7.21609 6.36377 8.43714 6.36377 9.94337V18.1252C6.36377 19.6314 7.58481 20.8525 9.09104 20.8525H17.2729C18.7791 20.8525 20.0001 19.6314 20.0001 18.1252V9.94337C20.0001 8.43714 18.7791 7.21609 17.2729 7.21609H9.09104Z" fill="black"/>
</svg>
