<svg width="226" height="40" viewBox="0 0 226 40" fill="none" xmlns="http://www.w3.org/2000/svg">
<path d="M25.3637 12.9062C25.5087 12.9062 25.6478 12.8485 25.7503 12.746C25.8528 12.6434 25.9105 12.5044 25.9106 12.3594V9.48906C25.9099 8.87197 25.6645 8.28035 25.2281 7.844C24.7918 7.40765 24.2002 7.16222 23.5831 7.16156H16.3068C15.6897 7.16222 15.098 7.40764 14.6616 7.84398C14.2252 8.28032 13.9797 8.87194 13.979 9.48906V12.3606C13.9791 12.5056 14.0367 12.6447 14.1393 12.7472C14.2418 12.8498 14.3809 12.9074 14.5259 12.9075L25.3637 12.9062ZM15.0728 9.48906C15.0732 9.16192 15.2033 8.84831 15.4347 8.61701C15.666 8.38572 15.9797 8.25564 16.3068 8.25531H23.5831C23.9102 8.25564 24.2238 8.38573 24.4551 8.61703C24.6864 8.84833 24.8165 9.16195 24.8168 9.48906V11.8125H15.0728V9.48906Z" fill="#0A0A63"/>
<path d="M6.96875 19.7162V30.7744C6.96863 30.9736 7.00779 31.171 7.08399 31.3551C7.16019 31.5393 7.27194 31.7066 7.41285 31.8475C7.55376 31.9884 7.72106 32.1001 7.90519 32.1763C8.08932 32.2525 8.28666 32.2917 8.48594 32.2916H31.4625C31.6618 32.2917 31.8592 32.2526 32.0433 32.1764C32.2275 32.1002 32.3949 31.9885 32.5358 31.8476C32.6767 31.7067 32.7885 31.5393 32.8647 31.3552C32.941 31.171 32.9801 30.9737 32.98 30.7744V19.7162L21.3284 22.6691V24.3144C21.3286 24.4151 21.3088 24.5148 21.2704 24.6079C21.232 24.7009 21.1756 24.7855 21.1045 24.8568C21.0333 24.9281 20.9489 24.9846 20.8559 25.0233C20.7629 25.0619 20.6632 25.0818 20.5625 25.0819H19.3278C19.1244 25.0815 18.9293 25.0006 18.7855 24.8567C18.6416 24.7129 18.5606 24.5178 18.5603 24.3144V22.6512L6.96875 19.7162Z" fill="#0078FF"/>
<path d="M32.98 19.7163L34.0113 19.4569V13.2563C34.0116 13.0564 33.9725 12.8585 33.8962 12.6738C33.8199 12.4892 33.7079 12.3214 33.5666 12.1801C33.4253 12.0388 33.2575 11.9268 33.0728 11.8505C32.8881 11.7743 32.6901 11.7352 32.4903 11.7356H7.45969C7.25976 11.7351 7.06169 11.774 6.87685 11.8502C6.69202 11.9264 6.52405 12.0383 6.38261 12.1796C6.24117 12.3209 6.12903 12.4888 6.05265 12.6735C5.97626 12.8583 5.93713 13.0563 5.9375 13.2563V19.4569L6.96875 19.7163L18.5597 22.6513V21.5997C18.56 21.3962 18.641 21.2012 18.7849 21.0574C18.9287 20.9135 19.1237 20.8325 19.3272 20.8322H20.5625C20.6633 20.8321 20.7632 20.8518 20.8564 20.8904C20.9495 20.9289 21.0342 20.9854 21.1055 21.0567C21.1768 21.128 21.2333 21.2127 21.2718 21.3058C21.3104 21.399 21.3301 21.4989 21.33 21.5997V22.6691L32.98 19.7163Z" fill="#DBECFF"/>
<path d="M20.5625 25.0819C20.6633 25.082 20.7632 25.0622 20.8563 25.0237C20.9495 24.9852 21.0342 24.9286 21.1055 24.8573C21.1768 24.7861 21.2333 24.7014 21.2718 24.6082C21.3103 24.5151 21.3301 24.4152 21.33 24.3144V21.5997C21.3301 21.4989 21.3103 21.399 21.2718 21.3058C21.2333 21.2127 21.1768 21.128 21.1055 21.0567C21.0342 20.9854 20.9495 20.9289 20.8563 20.8904C20.7632 20.8518 20.6633 20.8321 20.5625 20.8322H19.3278C19.1243 20.8325 18.9293 20.9135 18.7855 21.0573C18.6416 21.2012 18.5606 21.3962 18.5603 21.5997V24.3144C18.5606 24.5178 18.6416 24.7128 18.7855 24.8567C18.9293 25.0006 19.1243 25.0815 19.3278 25.0819H20.5625Z" fill="#E05151"/>
<path d="M7.51611 25.4688V25.0819C7.51611 24.9368 7.4585 24.7977 7.35594 24.6952C7.25338 24.5926 7.11428 24.535 6.96924 24.535C6.8242 24.535 6.6851 24.5926 6.58254 24.6952C6.47998 24.7977 6.42236 24.9368 6.42236 25.0819V25.4688C6.42236 25.6138 6.47998 25.7529 6.58254 25.8555C6.6851 25.958 6.8242 26.0156 6.96924 26.0156C7.11428 26.0156 7.25338 25.958 7.35594 25.8555C7.4585 25.7529 7.51611 25.6138 7.51611 25.4688Z" fill="#0A0A63"/>
<path d="M23.5831 7.16156H16.3068C15.6897 7.16222 15.0981 7.40764 14.6617 7.84398C14.2253 8.28032 13.9798 8.87194 13.979 9.48906V11.1875H7.45966C6.91147 11.1881 6.3859 11.4061 5.99824 11.7937C5.61059 12.1813 5.39251 12.7068 5.39185 13.255V19.4569C5.39159 19.5789 5.43215 19.6974 5.50707 19.7937C5.58199 19.89 5.68697 19.9584 5.80528 19.9881L6.42247 20.1444V22.6703C6.42247 22.8153 6.48009 22.9545 6.58265 23.057C6.68521 23.1596 6.82431 23.2172 6.96935 23.2172C7.11439 23.2172 7.25349 23.1596 7.35605 23.057C7.4586 22.9545 7.51622 22.8153 7.51622 22.6703V20.4203L17.6278 22.9794L18.0134 23.0772V24.3144C18.0133 24.3514 18.0171 24.3884 18.0247 24.4247C18.0518 24.752 18.2007 25.0573 18.442 25.2803C18.6832 25.5032 18.9993 25.6275 19.3278 25.6287H20.5625C20.891 25.6275 21.207 25.5032 21.4483 25.2803C21.6896 25.0573 21.8385 24.752 21.8656 24.4247C21.8725 24.3883 21.8757 24.3514 21.875 24.3144V23.0937L31.6337 20.6206L32.4328 20.4181V30.7744C32.4325 31.0317 32.3301 31.2783 32.1481 31.4602C31.9661 31.6421 31.7195 31.7444 31.4622 31.7447H8.48653C8.22929 31.7444 7.98268 31.642 7.80079 31.4601C7.61889 31.2782 7.51655 31.0316 7.51622 30.7744V27.9687C7.51622 27.8237 7.4586 27.6846 7.35605 27.5821C7.25349 27.4795 7.11439 27.4219 6.96935 27.4219C6.82431 27.4219 6.68521 27.4795 6.58265 27.5821C6.48009 27.6846 6.42247 27.8237 6.42247 27.9687V30.7744C6.42305 31.3216 6.6407 31.8463 7.02766 32.2332C7.41462 32.6202 7.93929 32.8379 8.48653 32.8384H31.4625C32.0097 32.8379 32.5344 32.6202 32.9215 32.2333C33.3085 31.8463 33.5262 31.3216 33.5268 30.7744V20.1428L34.1437 19.9866C34.262 19.9568 34.367 19.8884 34.4419 19.7921C34.5169 19.6959 34.5574 19.5773 34.5572 19.4553V13.2562C34.5565 12.7081 34.3384 12.1825 33.9508 11.7949C33.5631 11.4073 33.0375 11.1893 32.4893 11.1887H25.9106V9.48906C25.9099 8.87197 25.6645 8.28035 25.2282 7.844C24.7918 7.40765 24.2002 7.16222 23.5831 7.16156ZM15.0728 9.48906C15.0732 9.16192 15.2034 8.84831 15.4347 8.61701C15.6661 8.38572 15.9797 8.25564 16.3068 8.25531H23.5831C23.9102 8.25564 24.2238 8.38573 24.4551 8.61703C24.6864 8.84833 24.8165 9.16195 24.8168 9.48906V11.1875H15.0728V9.48906ZM20.7812 22.6694V24.3144C20.7811 24.3729 20.7579 24.4289 20.7165 24.4703C20.6752 24.5116 20.6191 24.5349 20.5606 24.535H19.3278C19.2693 24.5349 19.2132 24.5116 19.1719 24.4703C19.1305 24.4289 19.1072 24.3729 19.1072 24.3144V21.5997C19.1072 21.5412 19.1305 21.4851 19.1719 21.4438C19.2132 21.4024 19.2693 21.3791 19.3278 21.3791H20.5625C20.621 21.3791 20.677 21.4024 20.7184 21.4438C20.7597 21.4851 20.783 21.5412 20.7831 21.5997L20.7812 22.6694ZM32.4893 12.2812C32.7476 12.2815 32.9951 12.3842 33.1777 12.5667C33.3603 12.7493 33.4631 12.9968 33.4634 13.255V19.0312L32.8531 19.1859C32.8506 19.1859 32.8481 19.1859 32.8456 19.1859L21.875 21.9666V21.5997C21.8746 21.2515 21.7363 20.9177 21.4903 20.6713C21.2443 20.4249 20.9106 20.2861 20.5625 20.2853H19.3278C18.9793 20.2856 18.6452 20.4242 18.3987 20.6706C18.1523 20.9171 18.0137 21.2512 18.0134 21.5997V21.9487L7.10278 19.1875L6.4856 19.0312V13.2562C6.4856 12.9978 6.58819 12.75 6.77084 12.5671C6.95348 12.3843 7.20124 12.2815 7.45966 12.2812H32.4909H32.4893Z" fill="#0A0A63"/>
<path d="M56.608 11.5455H59.7443V23.8182C59.7386 24.9432 59.5 25.9119 59.0284 26.7244C58.5568 27.5312 57.8977 28.1534 57.0511 28.5909C56.2102 29.0227 55.2301 29.2386 54.1108 29.2386C53.0881 29.2386 52.1676 29.0568 51.3494 28.6932C50.5369 28.3239 49.892 27.7784 49.4148 27.0568C48.9375 26.3352 48.6989 25.4375 48.6989 24.3636H51.8438C51.8494 24.8352 51.9517 25.2415 52.1506 25.5824C52.3551 25.9233 52.6364 26.1847 52.9943 26.3665C53.3523 26.5483 53.7642 26.6392 54.2301 26.6392C54.7358 26.6392 55.1648 26.5341 55.517 26.3239C55.8693 26.108 56.1364 25.7898 56.3182 25.3693C56.5057 24.9489 56.6023 24.4318 56.608 23.8182V11.5455ZM68.7486 29.2557C67.4702 29.2557 66.3622 28.9744 65.4247 28.4119C64.4872 27.8494 63.7599 27.0625 63.2429 26.0511C62.7315 25.0398 62.4759 23.858 62.4759 22.5057C62.4759 21.1534 62.7315 19.9687 63.2429 18.9517C63.7599 17.9347 64.4872 17.1449 65.4247 16.5824C66.3622 16.0199 67.4702 15.7386 68.7486 15.7386C70.027 15.7386 71.1349 16.0199 72.0724 16.5824C73.0099 17.1449 73.7344 17.9347 74.2457 18.9517C74.7628 19.9687 75.0213 21.1534 75.0213 22.5057C75.0213 23.858 74.7628 25.0398 74.2457 26.0511C73.7344 27.0625 73.0099 27.8494 72.0724 28.4119C71.1349 28.9744 70.027 29.2557 68.7486 29.2557ZM68.7656 26.7841C69.4588 26.7841 70.0384 26.5937 70.5043 26.2131C70.9702 25.8267 71.3168 25.3097 71.544 24.6619C71.777 24.0142 71.8935 23.2926 71.8935 22.4972C71.8935 21.696 71.777 20.9716 71.544 20.3239C71.3168 19.6705 70.9702 19.1506 70.5043 18.7642C70.0384 18.3778 69.4588 18.1847 68.7656 18.1847C68.0554 18.1847 67.4645 18.3778 66.9929 18.7642C66.527 19.1506 66.1776 19.6705 65.9446 20.3239C65.7173 20.9716 65.6037 21.696 65.6037 22.4972C65.6037 23.2926 65.7173 24.0142 65.9446 24.6619C66.1776 25.3097 66.527 25.8267 66.9929 26.2131C67.4645 26.5937 68.0554 26.7841 68.7656 26.7841ZM77.7763 29V11.5455H80.8615V18.0739H80.9893C81.1484 17.7557 81.3729 17.4176 81.6626 17.0597C81.9524 16.696 82.3445 16.3864 82.8388 16.1307C83.3331 15.8693 83.9638 15.7386 84.7308 15.7386C85.7422 15.7386 86.6541 15.9972 87.4666 16.5142C88.2848 17.0256 88.9325 17.7841 89.4098 18.7898C89.8928 19.7898 90.1342 21.017 90.1342 22.4716C90.1342 23.9091 89.8984 25.1307 89.4268 26.1364C88.9553 27.142 88.3132 27.9091 87.5007 28.4375C86.6882 28.9659 85.7678 29.2301 84.7393 29.2301C83.9893 29.2301 83.3672 29.1051 82.8729 28.8551C82.3786 28.6051 81.9808 28.304 81.6797 27.9517C81.3842 27.5937 81.1541 27.2557 80.9893 26.9375H80.8104V29H77.7763ZM80.8018 22.4545C80.8018 23.3011 80.9212 24.0426 81.1598 24.679C81.4041 25.3153 81.7536 25.8125 82.2081 26.1705C82.6683 26.5227 83.2251 26.6989 83.8786 26.6989C84.5604 26.6989 85.1314 26.517 85.5916 26.1534C86.0518 25.7841 86.3984 25.2812 86.6314 24.6449C86.87 24.0028 86.9893 23.2727 86.9893 22.4545C86.9893 21.642 86.8729 20.9205 86.6399 20.2898C86.407 19.6591 86.0604 19.1648 85.6001 18.8068C85.1399 18.4489 84.5661 18.2699 83.8786 18.2699C83.2195 18.2699 82.6598 18.4432 82.1996 18.7898C81.7393 19.1364 81.3899 19.6222 81.1513 20.2472C80.9183 20.8722 80.8018 21.608 80.8018 22.4545ZM92.8935 29V11.5455H99.4389C100.78 11.5455 101.905 11.7955 102.814 12.2955C103.729 12.7955 104.419 13.483 104.885 14.358C105.357 15.2273 105.592 16.2159 105.592 17.3239C105.592 18.4432 105.357 19.4375 104.885 20.3068C104.413 21.1761 103.717 21.8608 102.797 22.3608C101.876 22.8551 100.743 23.1023 99.3963 23.1023H95.0582V20.5028H98.9702C99.7543 20.5028 100.396 20.3665 100.896 20.0938C101.396 19.821 101.766 19.446 102.004 18.9688C102.249 18.4915 102.371 17.9432 102.371 17.3239C102.371 16.7045 102.249 16.1591 102.004 15.6875C101.766 15.2159 101.393 14.8494 100.888 14.5881C100.388 14.321 99.7429 14.1875 98.9531 14.1875H96.0554V29H92.8935ZM113.725 29.2557C112.447 29.2557 111.339 28.9744 110.401 28.4119C109.464 27.8494 108.737 27.0625 108.219 26.0511C107.708 25.0398 107.452 23.858 107.452 22.5057C107.452 21.1534 107.708 19.9687 108.219 18.9517C108.737 17.9347 109.464 17.1449 110.401 16.5824C111.339 16.0199 112.447 15.7386 113.725 15.7386C115.004 15.7386 116.112 16.0199 117.049 16.5824C117.987 17.1449 118.711 17.9347 119.222 18.9517C119.739 19.9687 119.998 21.1534 119.998 22.5057C119.998 23.858 119.739 25.0398 119.222 26.0511C118.711 27.0625 117.987 27.8494 117.049 28.4119C116.112 28.9744 115.004 29.2557 113.725 29.2557ZM113.742 26.7841C114.435 26.7841 115.015 26.5937 115.481 26.2131C115.947 25.8267 116.293 25.3097 116.521 24.6619C116.754 24.0142 116.87 23.2926 116.87 22.4972C116.87 21.696 116.754 20.9716 116.521 20.3239C116.293 19.6705 115.947 19.1506 115.481 18.7642C115.015 18.3778 114.435 18.1847 113.742 18.1847C113.032 18.1847 112.441 18.3778 111.969 18.7642C111.504 19.1506 111.154 19.6705 110.921 20.3239C110.694 20.9716 110.58 21.696 110.58 22.4972C110.58 23.2926 110.694 24.0142 110.921 24.6619C111.154 25.3097 111.504 25.8267 111.969 26.2131C112.441 26.5937 113.032 26.7841 113.742 26.7841ZM122.616 29V15.9091H125.608V18.0909H125.744C125.983 17.3352 126.392 16.7528 126.972 16.3438C127.557 15.929 128.224 15.7216 128.974 15.7216C129.145 15.7216 129.335 15.7301 129.545 15.7472C129.761 15.7585 129.94 15.7784 130.082 15.8068V18.6449C129.952 18.5994 129.744 18.5597 129.46 18.5256C129.182 18.4858 128.912 18.4659 128.651 18.4659C128.088 18.4659 127.582 18.5881 127.134 18.8324C126.69 19.071 126.341 19.4034 126.085 19.8295C125.83 20.2557 125.702 20.7472 125.702 21.304V29H122.616ZM139.372 15.9091V18.2955H131.847V15.9091H139.372ZM133.705 12.7727H136.79V25.0625C136.79 25.4773 136.852 25.7955 136.977 26.017C137.108 26.233 137.278 26.3807 137.489 26.4602C137.699 26.5398 137.932 26.5795 138.188 26.5795C138.381 26.5795 138.557 26.5653 138.716 26.5369C138.881 26.5085 139.006 26.483 139.091 26.4602L139.611 28.8722C139.446 28.929 139.21 28.9915 138.903 29.0597C138.602 29.1278 138.233 29.1676 137.795 29.179C137.023 29.2017 136.327 29.0852 135.707 28.8295C135.088 28.5682 134.597 28.1648 134.233 27.6193C133.875 27.0739 133.699 26.392 133.705 25.5739V12.7727ZM145.719 29.2642C144.89 29.2642 144.143 29.1165 143.478 28.821C142.819 28.5199 142.296 28.0767 141.91 27.4915C141.529 26.9062 141.339 26.1847 141.339 25.3267C141.339 24.5881 141.475 23.9773 141.748 23.4943C142.021 23.0114 142.393 22.625 142.864 22.3352C143.336 22.0455 143.867 21.8267 144.458 21.679C145.055 21.5256 145.671 21.4148 146.308 21.3466C147.075 21.267 147.697 21.196 148.174 21.1335C148.651 21.0653 148.998 20.9631 149.214 20.8267C149.435 20.6847 149.546 20.4659 149.546 20.1705V20.1193C149.546 19.4773 149.356 18.9801 148.975 18.6278C148.594 18.2756 148.046 18.0994 147.33 18.0994C146.575 18.0994 145.975 18.2642 145.532 18.5938C145.094 18.9233 144.799 19.3125 144.646 19.7614L141.765 19.3523C141.992 18.5568 142.367 17.892 142.89 17.358C143.413 16.8182 144.052 16.4148 144.808 16.1477C145.563 15.875 146.398 15.7386 147.313 15.7386C147.944 15.7386 148.572 15.8125 149.197 15.9602C149.822 16.108 150.393 16.3523 150.91 16.6932C151.427 17.0284 151.842 17.4858 152.154 18.0653C152.472 18.6449 152.631 19.3693 152.631 20.2386V29H149.665V27.2017H149.563C149.376 27.5653 149.112 27.9062 148.771 28.2244C148.435 28.5369 148.012 28.7898 147.501 28.983C146.995 29.1705 146.401 29.2642 145.719 29.2642ZM146.521 26.9972C147.14 26.9972 147.677 26.875 148.131 26.6307C148.586 26.3807 148.935 26.0511 149.18 25.642C149.43 25.233 149.555 24.7869 149.555 24.304V22.7614C149.458 22.8409 149.293 22.9148 149.06 22.983C148.833 23.0511 148.577 23.1108 148.293 23.1619C148.009 23.2131 147.728 23.2585 147.45 23.2983C147.171 23.3381 146.93 23.3722 146.725 23.4006C146.265 23.4631 145.853 23.5653 145.489 23.7074C145.126 23.8494 144.839 24.0483 144.629 24.304C144.418 24.554 144.313 24.8778 144.313 25.2756C144.313 25.8438 144.521 26.2727 144.935 26.5625C145.35 26.8523 145.879 26.9972 146.521 26.9972ZM158.819 11.5455V29H155.734V11.5455H158.819Z" fill="#18191C"/>
<path d="M170.233 25.5V15.3182H171.406V19.0767H171.506C171.592 18.9441 171.711 18.7751 171.864 18.5696C172.019 18.3608 172.241 18.1752 172.53 18.0128C172.821 17.8471 173.216 17.7642 173.713 17.7642C174.356 17.7642 174.923 17.925 175.413 18.2464C175.904 18.5679 176.287 19.0237 176.562 19.6136C176.837 20.2036 176.974 20.8996 176.974 21.7017C176.974 22.5104 176.837 23.2114 176.562 23.8047C176.287 24.3946 175.906 24.852 175.418 25.1768C174.931 25.4983 174.369 25.6591 173.733 25.6591C173.242 25.6591 172.85 25.5779 172.555 25.4155C172.26 25.2498 172.033 25.0625 171.874 24.8537C171.714 24.6416 171.592 24.4659 171.506 24.3267H171.366V25.5H170.233ZM171.386 21.6818C171.386 22.2585 171.471 22.7673 171.64 23.2081C171.809 23.6456 172.056 23.9886 172.381 24.2372C172.705 24.4825 173.103 24.6051 173.574 24.6051C174.064 24.6051 174.474 24.4759 174.802 24.2173C175.133 23.9555 175.382 23.6042 175.548 23.1634C175.717 22.7192 175.801 22.2254 175.801 21.6818C175.801 21.1449 175.718 20.661 175.553 20.2301C175.39 19.7959 175.143 19.4529 174.812 19.201C174.484 18.9458 174.071 18.8182 173.574 18.8182C173.097 18.8182 172.696 18.9392 172.371 19.1811C172.046 19.4197 171.801 19.7545 171.635 20.1854C171.469 20.6129 171.386 21.1117 171.386 21.6818ZM179.251 28.3636C179.053 28.3636 178.875 28.3471 178.719 28.3139C178.564 28.2841 178.456 28.2543 178.396 28.2244L178.695 27.1903C178.98 27.2633 179.232 27.2898 179.45 27.2699C179.669 27.25 179.863 27.1522 180.032 26.9766C180.204 26.8042 180.362 26.5241 180.504 26.1364L180.723 25.5398L177.899 17.8636H179.172L181.28 23.9489H181.359L183.467 17.8636H184.74L181.499 26.6136C181.353 27.008 181.172 27.3345 180.957 27.593C180.741 27.8549 180.491 28.0488 180.206 28.1747C179.924 28.3007 179.606 28.3636 179.251 28.3636ZM196.113 19.8821L194.472 20.0611C194.426 19.8954 194.344 19.7396 194.228 19.5938C194.116 19.4479 193.963 19.3303 193.771 19.2408C193.579 19.1513 193.343 19.1065 193.065 19.1065C192.69 19.1065 192.376 19.1877 192.12 19.3501C191.868 19.5125 191.744 19.723 191.748 19.9815C191.744 20.2036 191.825 20.3842 191.991 20.5234C192.16 20.6626 192.439 20.777 192.826 20.8665L194.129 21.1449C194.851 21.3007 195.388 21.5476 195.74 21.8857C196.094 22.2237 196.273 22.6662 196.277 23.2131C196.273 23.6937 196.132 24.1179 195.854 24.4858C195.579 24.8504 195.196 25.1354 194.706 25.3409C194.215 25.5464 193.652 25.6491 193.015 25.6491C192.081 25.6491 191.328 25.4536 190.758 25.0625C190.188 24.6681 189.848 24.1196 189.739 23.4169L191.494 23.2479C191.574 23.5926 191.743 23.8527 192.001 24.0284C192.26 24.2041 192.596 24.2919 193.01 24.2919C193.438 24.2919 193.781 24.2041 194.039 24.0284C194.301 23.8527 194.432 23.6357 194.432 23.3771C194.432 23.1584 194.348 22.9777 194.179 22.8352C194.013 22.6927 193.754 22.5833 193.403 22.5071L192.1 22.2337C191.368 22.0812 190.826 21.8243 190.475 21.4631C190.123 21.0985 189.949 20.6378 189.953 20.081C189.949 19.6103 190.077 19.2027 190.336 18.858C190.597 18.5099 190.96 18.2415 191.424 18.0526C191.892 17.8603 192.43 17.7642 193.04 17.7642C193.935 17.7642 194.639 17.9548 195.153 18.3359C195.67 18.7171 195.99 19.2325 196.113 19.8821ZM200.594 25.6342C199.995 25.6342 199.458 25.4801 198.984 25.1719C198.51 24.8636 198.135 24.4162 197.86 23.8295C197.585 23.2429 197.447 22.5303 197.447 21.6918C197.447 20.8433 197.587 20.1274 197.865 19.544C198.147 18.9574 198.526 18.5149 199.004 18.2166C199.481 17.915 200.013 17.7642 200.599 17.7642C201.047 17.7642 201.415 17.8404 201.703 17.9929C201.991 18.142 202.22 18.3227 202.389 18.5348C202.558 18.7436 202.689 18.9408 202.782 19.1264H202.857V15.3182H204.661V25.5H202.891V24.2969H202.782C202.689 24.4825 202.555 24.6797 202.379 24.8885C202.204 25.094 201.972 25.2696 201.683 25.4155C201.395 25.5613 201.032 25.6342 200.594 25.6342ZM201.097 24.1577C201.478 24.1577 201.803 24.0549 202.071 23.8494C202.339 23.6406 202.543 23.3506 202.683 22.9794C202.822 22.6082 202.891 22.1757 202.891 21.6818C202.891 21.188 202.822 20.7588 202.683 20.3942C202.547 20.0296 202.344 19.7462 202.076 19.544C201.811 19.3419 201.484 19.2408 201.097 19.2408C200.696 19.2408 200.361 19.3452 200.092 19.554C199.824 19.7628 199.622 20.0511 199.486 20.419C199.35 20.7869 199.282 21.2079 199.282 21.6818C199.282 22.1591 199.35 22.585 199.486 22.9595C199.625 23.3307 199.829 23.6241 200.097 23.8395C200.369 24.0516 200.702 24.1577 201.097 24.1577ZM212.615 19.8821L210.974 20.0611C210.927 19.8954 210.846 19.7396 210.73 19.5938C210.618 19.4479 210.465 19.3303 210.273 19.2408C210.081 19.1513 209.845 19.1065 209.567 19.1065C209.192 19.1065 208.878 19.1877 208.622 19.3501C208.37 19.5125 208.246 19.723 208.249 19.9815C208.246 20.2036 208.327 20.3842 208.493 20.5234C208.662 20.6626 208.941 20.777 209.328 20.8665L210.631 21.1449C211.353 21.3007 211.89 21.5476 212.242 21.8857C212.596 22.2237 212.775 22.6662 212.779 23.2131C212.775 23.6937 212.634 24.1179 212.356 24.4858C212.081 24.8504 211.698 25.1354 211.208 25.3409C210.717 25.5464 210.154 25.6491 209.517 25.6491C208.583 25.6491 207.83 25.4536 207.26 25.0625C206.69 24.6681 206.35 24.1196 206.241 23.4169L207.996 23.2479C208.075 23.5926 208.244 23.8527 208.503 24.0284C208.762 24.2041 209.098 24.2919 209.512 24.2919C209.94 24.2919 210.283 24.2041 210.541 24.0284C210.803 23.8527 210.934 23.6357 210.934 23.3771C210.934 23.1584 210.85 22.9777 210.681 22.8352C210.515 22.6927 210.256 22.5833 209.905 22.5071L208.602 22.2337C207.87 22.0812 207.328 21.8243 206.977 21.4631C206.625 21.0985 206.451 20.6378 206.455 20.081C206.451 19.6103 206.579 19.2027 206.838 18.858C207.099 18.5099 207.462 18.2415 207.926 18.0526C208.394 17.8603 208.932 17.7642 209.542 17.7642C210.437 17.7642 211.141 17.9548 211.655 18.3359C212.172 18.7171 212.492 19.2325 212.615 19.8821ZM217.594 25.6491C216.848 25.6491 216.202 25.4851 215.655 25.157C215.108 24.8288 214.684 24.3698 214.382 23.7798C214.084 23.1899 213.934 22.5005 213.934 21.7116C213.934 20.9228 214.084 20.2318 214.382 19.6385C214.684 19.0452 215.108 18.5845 215.655 18.2564C216.202 17.9283 216.848 17.7642 217.594 17.7642C218.339 17.7642 218.986 17.9283 219.532 18.2564C220.079 18.5845 220.502 19.0452 220.8 19.6385C221.102 20.2318 221.253 20.9228 221.253 21.7116C221.253 22.5005 221.102 23.1899 220.8 23.7798C220.502 24.3698 220.079 24.8288 219.532 25.157C218.986 25.4851 218.339 25.6491 217.594 25.6491ZM217.604 24.2074C218.008 24.2074 218.346 24.0964 218.618 23.8743C218.89 23.6489 219.092 23.3473 219.224 22.9695C219.36 22.5916 219.428 22.1707 219.428 21.7067C219.428 21.2393 219.36 20.8168 219.224 20.4389C219.092 20.0578 218.89 19.7545 218.618 19.5291C218.346 19.3037 218.008 19.1911 217.604 19.1911C217.189 19.1911 216.845 19.3037 216.569 19.5291C216.298 19.7545 216.094 20.0578 215.958 20.4389C215.825 20.8168 215.759 21.2393 215.759 21.7067C215.759 22.1707 215.825 22.5916 215.958 22.9695C216.094 23.3473 216.298 23.6489 216.569 23.8743C216.845 24.0964 217.189 24.2074 217.604 24.2074ZM224.58 15.3182V25.5H222.78V15.3182H224.58Z" fill="#04354D"/>
</svg>
