<svg width="20" height="21" viewBox="0 0 20 21" fill="none" xmlns="http://www.w3.org/2000/svg">
<path d="M7.5 17.7274H3.75C3.58424 17.7274 3.42527 17.6616 3.30806 17.5444C3.19085 17.4272 3.125 17.2682 3.125 17.1024V13.6113C3.125 13.5292 3.14117 13.448 3.17258 13.3721C3.20398 13.2963 3.25002 13.2274 3.30806 13.1694L12.6831 3.79439C12.8003 3.67718 12.9592 3.61133 13.125 3.61133C13.2908 3.61133 13.4497 3.67718 13.5669 3.79439L17.0581 7.2855C17.1753 7.40271 17.2411 7.56168 17.2411 7.72744C17.2411 7.8932 17.1753 8.05217 17.0581 8.16938L7.5 17.7274Z" stroke="#5E6670" stroke-width="1.5" stroke-linecap="round" stroke-linejoin="round"/>
<path d="M10.625 5.85245L15 10.2274" stroke="#5E6670" stroke-width="1.5" stroke-linecap="round" stroke-linejoin="round"/>
<path d="M16.875 17.7274H7.50003L3.16479 13.3922" stroke="#5E6670" stroke-width="1.5" stroke-linecap="round" stroke-linejoin="round"/>
</svg>
