<svg width="19" height="20" viewBox="0 0 19 20" fill="none" xmlns="http://www.w3.org/2000/svg">
<path d="M5.66965 10.2016C6.44762 11.7921 7.73687 13.0755 9.3309 13.8463C9.44753 13.9015 9.57654 13.9255 9.70523 13.9157C9.83392 13.906 9.95786 13.8629 10.0648 13.7907L12.4119 12.2256C12.5157 12.1564 12.6352 12.1142 12.7594 12.1028C12.8837 12.0914 13.0088 12.1111 13.1235 12.1603L17.5144 14.0421C17.6636 14.1055 17.7881 14.2156 17.8693 14.3559C17.9504 14.4962 17.9838 14.659 17.9643 14.8199C17.8255 15.9059 17.2956 16.9041 16.4739 17.6276C15.6521 18.351 14.5948 18.7502 13.5 18.7502C10.1185 18.7502 6.87548 17.4069 4.48439 15.0158C2.0933 12.6247 0.75 9.38172 0.75 6.00021C0.750058 4.90538 1.14918 3.8481 1.87264 3.02635C2.5961 2.2046 3.59428 1.67472 4.68028 1.53593C4.84117 1.51646 5.00403 1.54981 5.14432 1.63094C5.28461 1.71208 5.39473 1.8366 5.4581 1.98577L7.34158 6.38057C7.3903 6.49424 7.41015 6.6182 7.39936 6.7414C7.38858 6.86461 7.3475 6.98323 7.27977 7.08672L5.72011 9.46982C5.64912 9.57702 5.60716 9.7008 5.59831 9.82907C5.58947 9.95734 5.61405 10.0857 5.66965 10.2016V10.2016Z" stroke="#0066FF" stroke-width="1.5" stroke-linecap="round" stroke-linejoin="round"/>
</svg>
