<svg width="20" height="21" viewBox="0 0 20 21" fill="none" xmlns="http://www.w3.org/2000/svg">
<path d="M16.8748 5.22745L3.12476 5.22745" stroke="#E05151" stroke-width="1.5" stroke-linecap="round" stroke-linejoin="round"/>
<path d="M8.125 8.97745V13.9774" stroke="#E05151" stroke-width="1.5" stroke-linecap="round" stroke-linejoin="round"/>
<path d="M11.875 8.97745V13.9774" stroke="#E05151" stroke-width="1.5" stroke-linecap="round" stroke-linejoin="round"/>
<path d="M15.625 5.22745V17.1024C15.625 17.2682 15.5592 17.4272 15.4419 17.5444C15.3247 17.6616 15.1658 17.7274 15 17.7274H5C4.83424 17.7274 4.67527 17.6616 4.55806 17.5444C4.44085 17.4272 4.375 17.2682 4.375 17.1024V5.22745" stroke="#E05151" stroke-width="1.5" stroke-linecap="round" stroke-linejoin="round"/>
<path d="M13.125 5.22745V3.97745C13.125 3.64593 12.9933 3.32798 12.7589 3.09356C12.5245 2.85914 12.2065 2.72745 11.875 2.72745H8.125C7.79348 2.72745 7.47554 2.85914 7.24112 3.09356C7.0067 3.32798 6.875 3.64593 6.875 3.97745V5.22745" stroke="#E05151" stroke-width="1.5" stroke-linecap="round" stroke-linejoin="round"/>
</svg>
