<svg width="18" height="16" viewBox="0 0 18 16" fill="none" xmlns="http://www.w3.org/2000/svg">
<mask id="path-1-inside-1_109_1696" fill="white">
<path d="M5.62925 15.2023C12.3841 15.2023 16.0782 9.63824 16.0782 4.81326C16.0782 4.65525 16.0749 4.49795 16.0678 4.34131C16.7865 3.8242 17.4068 3.18393 17.8996 2.45053C17.2416 2.7414 16.5335 2.93717 15.7907 3.02543C16.5489 2.5734 17.131 1.85828 17.4056 1.00585C16.6847 1.43105 15.896 1.73079 15.0736 1.89216C14.4035 1.18242 13.4494 0.738525 12.393 0.738525C10.3649 0.738525 8.72036 2.37373 8.72036 4.38937C8.72036 4.67593 8.75263 4.95457 8.81564 5.22194C5.76343 5.06924 3.05694 3.61628 1.24562 1.40697C0.919389 1.9642 0.747795 2.5975 0.748365 3.24221C0.748365 4.50902 1.39668 5.62732 2.38261 6.28159C1.79942 6.26388 1.22903 6.10726 0.719405 5.8249C0.718859 5.84023 0.718859 5.85516 0.718859 5.87154C0.718859 7.63985 1.98471 9.11627 3.66509 9.45082C3.3495 9.53628 3.02383 9.57949 2.69673 9.5793C2.46051 9.5793 2.23029 9.55619 2.00654 9.51349C2.47408 10.9643 3.82979 12.02 5.43716 12.0495C4.18022 13.0291 2.59686 13.6125 0.87599 13.6125C0.583247 13.6127 0.290744 13.5958 0 13.5619C1.6253 14.5977 3.55519 15.2021 5.62943 15.2021"/>
</mask>
<path d="M5.62925 15.2023C12.3841 15.2023 16.0782 9.63824 16.0782 4.81326C16.0782 4.65525 16.0749 4.49795 16.0678 4.34131C16.7865 3.8242 17.4068 3.18393 17.8996 2.45053C17.2416 2.7414 16.5335 2.93717 15.7907 3.02543C16.5489 2.5734 17.131 1.85828 17.4056 1.00585C16.6847 1.43105 15.896 1.73079 15.0736 1.89216C14.4035 1.18242 13.4494 0.738525 12.393 0.738525C10.3649 0.738525 8.72036 2.37373 8.72036 4.38937C8.72036 4.67593 8.75263 4.95457 8.81564 5.22194C5.76343 5.06924 3.05694 3.61628 1.24562 1.40697C0.919389 1.9642 0.747795 2.5975 0.748365 3.24221C0.748365 4.50902 1.39668 5.62732 2.38261 6.28159C1.79942 6.26388 1.22903 6.10726 0.719405 5.8249C0.718859 5.84023 0.718859 5.85516 0.718859 5.87154C0.718859 7.63985 1.98471 9.11627 3.66509 9.45082C3.3495 9.53628 3.02383 9.57949 2.69673 9.5793C2.46051 9.5793 2.23029 9.55619 2.00654 9.51349C2.47408 10.9643 3.82979 12.02 5.43716 12.0495C4.18022 13.0291 2.59686 13.6125 0.87599 13.6125C0.583247 13.6127 0.290744 13.5958 0 13.5619C1.6253 14.5977 3.55519 15.2021 5.62943 15.2021" fill="#1DA1F2"/>
<path d="M16.0678 4.34131L13.8671 1.28237L12.2101 2.47445L12.3034 4.51355L16.0678 4.34131ZM17.8996 2.45053L21.0275 4.55215L28.2954 -6.26473L16.3761 -0.996084L17.8996 2.45053ZM15.7907 3.02543L13.861 -0.21133L16.2353 6.76742L15.7907 3.02543ZM17.4056 1.00585L20.9923 2.16147L24.0338 -7.27848L15.4912 -2.23995L17.4056 1.00585ZM15.0736 1.89216L12.3337 4.47924L13.7602 5.99003L15.7992 5.58996L15.0736 1.89216ZM8.81564 5.22194L8.62735 8.98554L13.6332 9.23599L12.4835 4.3575L8.81564 5.22194ZM1.24562 1.40697L4.15974 -0.982195L0.728203 -5.16773L-2.00635 -0.496929L1.24562 1.40697ZM0.748365 3.24221H4.51668L4.51668 3.23888L0.748365 3.24221ZM2.38261 6.28159L2.26824 10.0482L15.4782 10.4493L4.46624 3.14173L2.38261 6.28159ZM0.719405 5.8249L2.54569 2.5287L-2.82799 -0.448634L-3.04652 5.69085L0.719405 5.8249ZM3.66509 9.45082L4.65 13.0881L4.40089 5.75504L3.66509 9.45082ZM2.69673 9.5793L2.69891 5.81098H2.69673V9.5793ZM2.00654 9.51349L2.71301 5.81199L-3.52943 4.62055L-1.58013 10.6693L2.00654 9.51349ZM5.43716 12.0495L7.75348 15.0219L16.1516 8.47726L5.50632 8.28185L5.43716 12.0495ZM0.87599 13.6125V9.84417L0.872803 9.84417L0.87599 13.6125ZM0 13.5619L0.436966 9.81901L-2.02521 16.7397L0 13.5619ZM5.62925 18.9706C14.8791 18.9706 19.8465 11.28 19.8465 4.81326H12.3098C12.3098 7.99649 9.88916 11.434 5.62925 11.434V18.9706ZM19.8465 4.81326C19.8465 4.60392 19.8422 4.38889 19.8321 4.16907L12.3034 4.51355C12.3077 4.60702 12.3098 4.70657 12.3098 4.81326H19.8465ZM18.2685 7.40025C19.3499 6.62222 20.2844 5.65802 21.0275 4.55215L14.7718 0.348909C14.5293 0.709849 14.2232 1.02618 13.8671 1.28237L18.2685 7.40025ZM16.3761 -0.996084C16.0619 -0.857203 15.7176 -0.760705 15.346 -0.71656L16.2353 6.76742C17.3495 6.63504 18.4213 6.34 19.4231 5.89715L16.3761 -0.996084ZM17.7203 6.26219C19.2454 5.35301 20.4296 3.90811 20.9923 2.16147L13.8189 -0.149764C13.8258 -0.171173 13.8349 -0.185806 13.8418 -0.194301C13.8481 -0.202219 13.8544 -0.207378 13.861 -0.21133L17.7203 6.26219ZM15.4912 -2.23995C15.1386 -2.03199 14.752 -1.88491 14.3481 -1.80565L15.7992 5.58996C17.04 5.34649 18.2308 4.89409 19.32 4.25166L15.4912 -2.23995ZM17.8136 -0.694923C16.4583 -2.13029 14.5247 -3.02979 12.393 -3.02979V4.50684C12.393 4.50684 12.3918 4.50684 12.3896 4.5066C12.3874 4.50637 12.3846 4.50596 12.3814 4.50528C12.3748 4.50388 12.3681 4.50172 12.3619 4.499C12.3504 4.49392 12.3414 4.48738 12.3337 4.47924L17.8136 -0.694923ZM12.393 -3.02979C8.30467 -3.02979 4.95204 0.271692 4.95204 4.38937H12.4887C12.4887 4.40229 12.4853 4.42336 12.4764 4.44419C12.4686 4.46244 12.4597 4.47378 12.4529 4.4805C12.4462 4.48722 12.4371 4.4938 12.4245 4.49911C12.4179 4.50187 12.411 4.504 12.4044 4.50535C12.4011 4.50601 12.3984 4.5064 12.3962 4.50662C12.394 4.50684 12.3929 4.50684 12.393 4.50684V-3.02979ZM4.95204 4.38937C4.95204 4.95965 5.01637 5.52866 5.14781 6.08638L12.4835 4.3575C12.4889 4.38049 12.4887 4.39221 12.4887 4.38937H4.95204ZM9.00393 1.45833C7.04984 1.36057 5.32042 0.433505 4.15974 -0.982195L-1.66849 3.79613C0.79347 6.79905 4.47701 8.7779 8.62735 8.98554L9.00393 1.45833ZM-2.00635 -0.496929C-2.67072 0.637854 -3.02111 1.92938 -3.01995 3.24554L4.51668 3.23888C4.5167 3.26562 4.5095 3.29055 4.4976 3.31087L-2.00635 -0.496929ZM-3.01995 3.24221C-3.01995 5.82614 -1.69303 8.09953 0.298994 9.42145L4.46624 3.14173C4.47871 3.15001 4.48967 3.16109 4.49902 3.17812C4.50417 3.1875 4.50892 3.19894 4.51228 3.21188C4.51578 3.22535 4.51668 3.23629 4.51668 3.24221H-3.01995ZM2.49699 2.51501C2.51285 2.51549 2.5295 2.51973 2.54569 2.5287L-1.10688 9.12109C-0.0714354 9.69479 1.08599 10.0123 2.26824 10.0482L2.49699 2.51501ZM-3.04652 5.69085C-3.04986 5.78443 -3.04946 5.8666 -3.04946 5.87154H4.48717C4.48717 5.86017 4.4872 5.8693 4.48709 5.88122C4.48697 5.89574 4.4866 5.92339 4.48533 5.95894L-3.04652 5.69085ZM-3.04946 5.87154C-3.04946 9.48579 -0.466088 12.4706 2.9293 13.1466L4.40089 5.75504C4.42841 5.76052 4.44646 5.77409 4.45702 5.78676C4.46341 5.79445 4.4713 5.80652 4.47772 5.82391C4.48478 5.84301 4.48717 5.86093 4.48717 5.87154H-3.04946ZM2.68018 5.8135C2.68651 5.81178 2.69278 5.81098 2.69891 5.81098L2.69455 13.3476C3.35489 13.348 4.01248 13.2608 4.65 13.0881L2.68018 5.8135ZM2.69673 5.81098C2.70167 5.81098 2.706 5.81123 2.70931 5.81155C2.71258 5.81187 2.71392 5.81216 2.71301 5.81199L1.30007 13.215C1.74661 13.3002 2.2134 13.3476 2.69673 13.3476V5.81098ZM-1.58013 10.6693C-0.62828 13.623 2.11926 15.7576 5.36799 15.8172L5.50632 8.28185C5.50914 8.2819 5.51856 8.28283 5.53047 8.28698C5.54124 8.29074 5.54979 8.29562 5.55623 8.30046C5.5662 8.30794 5.58243 8.32417 5.59321 8.35763L-1.58013 10.6693ZM3.12083 9.07719C2.50441 9.55756 1.73091 9.84417 0.87599 9.84417V17.3808C3.46282 17.3808 5.85602 16.5006 7.75348 15.0219L3.12083 9.07719ZM0.872803 9.84417C0.727132 9.8443 0.581598 9.83589 0.436966 9.81901L-0.436966 17.3048C-0.00010999 17.3558 0.439363 17.3812 0.879178 17.3808L0.872803 9.84417ZM-2.02521 16.7397C0.183207 18.1472 2.81205 18.9704 5.62943 18.9704V11.4337C4.29832 11.4337 3.06739 11.0482 2.02521 10.3841L-2.02521 16.7397Z" fill="#1DA1F2" mask="url(#path-1-inside-1_109_1696)"/>
</svg>
