<svg width="33" height="32" viewBox="0 0 33 32" fill="none" xmlns="http://www.w3.org/2000/svg">
<path d="M11.5 20C15.0899 20 18 17.0899 18 13.5C18 9.91015 15.0899 7 11.5 7C7.91015 7 5 9.91015 5 13.5C5 17.0899 7.91015 20 11.5 20Z" stroke="#219653" stroke-width="1.5" stroke-miterlimit="10"/>
<path d="M19.9265 7.24212C20.8205 6.99023 21.7582 6.93284 22.6762 7.07383C23.5943 7.21483 24.4715 7.55092 25.2487 8.05947C26.026 8.56802 26.6852 9.23723 27.182 10.022C27.6789 10.8068 28.0018 11.6889 28.129 12.609C28.2562 13.5291 28.1847 14.4658 27.9194 15.3559C27.6541 16.2461 27.2012 17.069 26.5911 17.7694C25.981 18.4697 25.2278 19.0312 24.3825 19.416C23.5371 19.8007 22.619 19.9999 21.6902 20" stroke="#219653" stroke-width="1.5" stroke-linecap="round" stroke-linejoin="round"/>
<path d="M2.49951 24.6746C3.51468 23.2306 4.86238 22.052 6.42882 21.2384C7.99527 20.4248 9.73448 20.0001 11.4996 20C13.2648 19.9999 15.004 20.4246 16.5705 21.238C18.137 22.0515 19.4848 23.23 20.5001 24.6739" stroke="#219653" stroke-width="1.5" stroke-linecap="round" stroke-linejoin="round"/>
<path d="M21.6903 20C23.4556 19.9987 25.1952 20.4228 26.7619 21.2364C28.3285 22.05 29.676 23.2291 30.6903 24.6739" stroke="#219653" stroke-width="1.5" stroke-linecap="round" stroke-linejoin="round"/>
</svg>
