<svg width="24" height="24" viewBox="0 0 24 24" fill="none" xmlns="http://www.w3.org/2000/svg">
<path d="M12 15C14.0711 15 15.75 13.3211 15.75 11.25C15.75 9.17893 14.0711 7.5 12 7.5C9.92893 7.5 8.25 9.17893 8.25 11.25C8.25 13.3211 9.92893 15 12 15Z" stroke="#767F8C" stroke-width="1.5" stroke-miterlimit="10"/>
<path d="M5.9812 18.6913C6.54615 17.5806 7.40744 16.6478 8.46973 15.9963C9.53202 15.3448 10.7539 15 12 15C13.2462 15 14.468 15.3448 15.5303 15.9963C16.5926 16.6478 17.4539 17.5806 18.0189 18.6913" stroke="#767F8C" stroke-width="1.5" stroke-linecap="round" stroke-linejoin="round"/>
<path d="M16.5 5.25H21" stroke="#767F8C" stroke-width="1.5" stroke-linecap="round" stroke-linejoin="round"/>
<path d="M20.4879 9C21.1428 10.8567 21.1702 12.877 20.5658 14.7507C19.9614 16.6245 18.7587 18.248 17.1424 19.3721C15.526 20.4962 13.5853 21.0586 11.6184 20.9731C9.65147 20.8875 7.76699 20.1587 6.25434 18.8985C4.74168 17.6384 3.68449 15.9165 3.24509 13.9974C2.80569 12.0782 3.00839 10.0679 3.82204 8.2751C4.6357 6.48231 6.01534 5.00615 7.74911 4.07329C9.48287 3.14044 11.4749 2.80247 13.4193 3.11129" stroke="#767F8C" stroke-width="1.5" stroke-linecap="round" stroke-linejoin="round"/>
</svg>
