<svg width="40" height="40" viewBox="0 0 40 40" fill="none" xmlns="http://www.w3.org/2000/svg">
<path d="M25.3637 12.9062C25.5087 12.9062 25.6478 12.8485 25.7503 12.746C25.8528 12.6434 25.9105 12.5044 25.9106 12.3594V9.48906C25.9099 8.87197 25.6645 8.28035 25.2281 7.844C24.7918 7.40765 24.2002 7.16222 23.5831 7.16156H16.3068C15.6897 7.16222 15.098 7.40764 14.6616 7.84398C14.2252 8.28032 13.9797 8.87194 13.979 9.48906V12.3606C13.9791 12.5056 14.0367 12.6447 14.1393 12.7472C14.2418 12.8498 14.3809 12.9074 14.5259 12.9075L25.3637 12.9062ZM15.0728 9.48906C15.0732 9.16192 15.2033 8.84831 15.4347 8.61701C15.666 8.38572 15.9797 8.25564 16.3068 8.25531H23.5831C23.9102 8.25564 24.2238 8.38573 24.4551 8.61703C24.6864 8.84833 24.8165 9.16195 24.8168 9.48906V11.8125H15.0728V9.48906Z" fill="#0A0A63"/>
<path d="M6.96875 19.7162V30.7744C6.96863 30.9736 7.00779 31.171 7.08399 31.3551C7.16019 31.5393 7.27194 31.7066 7.41285 31.8475C7.55376 31.9884 7.72106 32.1001 7.90519 32.1763C8.08932 32.2525 8.28666 32.2917 8.48594 32.2916H31.4625C31.6618 32.2917 31.8592 32.2526 32.0433 32.1764C32.2275 32.1002 32.3949 31.9885 32.5358 31.8476C32.6767 31.7067 32.7885 31.5393 32.8647 31.3552C32.941 31.171 32.9801 30.9737 32.98 30.7744V19.7162L21.3284 22.6691V24.3144C21.3286 24.4151 21.3088 24.5148 21.2704 24.6079C21.232 24.7009 21.1756 24.7855 21.1045 24.8568C21.0333 24.9281 20.9489 24.9846 20.8559 25.0233C20.7629 25.0619 20.6632 25.0818 20.5625 25.0819H19.3278C19.1244 25.0815 18.9293 25.0006 18.7855 24.8567C18.6416 24.7129 18.5606 24.5178 18.5603 24.3144V22.6512L6.96875 19.7162Z" fill="#0078FF"/>
<path d="M32.98 19.7163L34.0113 19.4569V13.2563C34.0116 13.0564 33.9725 12.8585 33.8962 12.6738C33.8199 12.4892 33.7079 12.3214 33.5666 12.1801C33.4253 12.0388 33.2575 11.9268 33.0728 11.8505C32.8881 11.7743 32.6901 11.7352 32.4903 11.7356H7.45969C7.25976 11.7351 7.06169 11.774 6.87685 11.8502C6.69202 11.9264 6.52405 12.0383 6.38261 12.1796C6.24117 12.3209 6.12903 12.4888 6.05265 12.6735C5.97626 12.8583 5.93713 13.0563 5.9375 13.2563V19.4569L6.96875 19.7163L18.5597 22.6513V21.5997C18.56 21.3962 18.641 21.2012 18.7849 21.0574C18.9287 20.9135 19.1237 20.8325 19.3272 20.8322H20.5625C20.6633 20.8321 20.7632 20.8518 20.8564 20.8904C20.9495 20.9289 21.0342 20.9854 21.1055 21.0567C21.1768 21.128 21.2333 21.2127 21.2718 21.3058C21.3104 21.399 21.3301 21.4989 21.33 21.5997V22.6691L32.98 19.7163Z" fill="#DBECFF"/>
<path d="M20.5625 25.0819C20.6633 25.082 20.7632 25.0622 20.8563 25.0237C20.9495 24.9852 21.0342 24.9286 21.1055 24.8573C21.1768 24.7861 21.2333 24.7014 21.2718 24.6082C21.3103 24.5151 21.3301 24.4152 21.33 24.3144V21.5997C21.3301 21.4989 21.3103 21.399 21.2718 21.3058C21.2333 21.2127 21.1768 21.128 21.1055 21.0567C21.0342 20.9854 20.9495 20.9289 20.8563 20.8904C20.7632 20.8518 20.6633 20.8321 20.5625 20.8322H19.3278C19.1243 20.8325 18.9293 20.9135 18.7855 21.0573C18.6416 21.2012 18.5606 21.3962 18.5603 21.5997V24.3144C18.5606 24.5178 18.6416 24.7128 18.7855 24.8567C18.9293 25.0006 19.1243 25.0815 19.3278 25.0819H20.5625Z" fill="#E05151"/>
<path d="M7.51624 25.4688V25.0819C7.51624 24.9368 7.45862 24.7977 7.35606 24.6952C7.2535 24.5926 7.1144 24.535 6.96936 24.535C6.82432 24.535 6.68522 24.5926 6.58266 24.6952C6.4801 24.7977 6.42249 24.9368 6.42249 25.0819V25.4688C6.42249 25.6138 6.4801 25.7529 6.58266 25.8555C6.68522 25.958 6.82432 26.0156 6.96936 26.0156C7.1144 26.0156 7.2535 25.958 7.35606 25.8555C7.45862 25.7529 7.51624 25.6138 7.51624 25.4688Z" fill="#0A0A63"/>
<path d="M23.5831 7.16156H16.3068C15.6897 7.16222 15.0981 7.40764 14.6617 7.84398C14.2253 8.28032 13.9798 8.87194 13.979 9.48906V11.1875H7.45966C6.91147 11.1881 6.3859 11.4061 5.99824 11.7937C5.61059 12.1813 5.39251 12.7068 5.39185 13.255V19.4569C5.39159 19.5789 5.43215 19.6974 5.50707 19.7937C5.58199 19.89 5.68697 19.9584 5.80528 19.9881L6.42247 20.1444V22.6703C6.42247 22.8153 6.48009 22.9545 6.58265 23.057C6.68521 23.1596 6.82431 23.2172 6.96935 23.2172C7.11439 23.2172 7.25349 23.1596 7.35605 23.057C7.4586 22.9545 7.51622 22.8153 7.51622 22.6703V20.4203L17.6278 22.9794L18.0134 23.0772V24.3144C18.0133 24.3514 18.0171 24.3884 18.0247 24.4247C18.0518 24.752 18.2007 25.0573 18.442 25.2803C18.6832 25.5032 18.9993 25.6275 19.3278 25.6287H20.5625C20.891 25.6275 21.207 25.5032 21.4483 25.2803C21.6896 25.0573 21.8385 24.752 21.8656 24.4247C21.8725 24.3883 21.8757 24.3514 21.875 24.3144V23.0937L31.6337 20.6206L32.4328 20.4181V30.7744C32.4325 31.0317 32.3301 31.2783 32.1481 31.4602C31.9661 31.6421 31.7195 31.7444 31.4622 31.7447H8.48653C8.22929 31.7444 7.98268 31.642 7.80079 31.4601C7.61889 31.2782 7.51655 31.0316 7.51622 30.7744V27.9687C7.51622 27.8237 7.4586 27.6846 7.35605 27.5821C7.25349 27.4795 7.11439 27.4219 6.96935 27.4219C6.82431 27.4219 6.68521 27.4795 6.58265 27.5821C6.48009 27.6846 6.42247 27.8237 6.42247 27.9687V30.7744C6.42305 31.3216 6.6407 31.8463 7.02766 32.2332C7.41462 32.6202 7.93929 32.8379 8.48653 32.8384H31.4625C32.0097 32.8379 32.5344 32.6202 32.9215 32.2333C33.3085 31.8463 33.5262 31.3216 33.5268 30.7744V20.1428L34.1437 19.9866C34.262 19.9568 34.367 19.8884 34.4419 19.7921C34.5169 19.6959 34.5574 19.5773 34.5572 19.4553V13.2562C34.5565 12.7081 34.3384 12.1825 33.9508 11.7949C33.5631 11.4073 33.0375 11.1893 32.4893 11.1887H25.9106V9.48906C25.9099 8.87197 25.6645 8.28035 25.2282 7.844C24.7918 7.40765 24.2002 7.16222 23.5831 7.16156ZM15.0728 9.48906C15.0732 9.16192 15.2034 8.84831 15.4347 8.61701C15.6661 8.38572 15.9797 8.25564 16.3068 8.25531H23.5831C23.9102 8.25564 24.2238 8.38573 24.4551 8.61703C24.6864 8.84833 24.8165 9.16195 24.8168 9.48906V11.1875H15.0728V9.48906ZM20.7812 22.6694V24.3144C20.7811 24.3729 20.7579 24.4289 20.7165 24.4703C20.6752 24.5116 20.6191 24.5349 20.5606 24.535H19.3278C19.2693 24.5349 19.2132 24.5116 19.1719 24.4703C19.1305 24.4289 19.1072 24.3729 19.1072 24.3144V21.5997C19.1072 21.5412 19.1305 21.4851 19.1719 21.4438C19.2132 21.4024 19.2693 21.3791 19.3278 21.3791H20.5625C20.621 21.3791 20.677 21.4024 20.7184 21.4438C20.7597 21.4851 20.783 21.5412 20.7831 21.5997L20.7812 22.6694ZM32.4893 12.2812C32.7476 12.2815 32.9951 12.3842 33.1777 12.5667C33.3603 12.7493 33.4631 12.9968 33.4634 13.255V19.0312L32.8531 19.1859C32.8506 19.1859 32.8481 19.1859 32.8456 19.1859L21.875 21.9666V21.5997C21.8746 21.2515 21.7363 20.9177 21.4903 20.6713C21.2443 20.4249 20.9106 20.2861 20.5625 20.2853H19.3278C18.9793 20.2856 18.6452 20.4242 18.3987 20.6706C18.1523 20.9171 18.0137 21.2512 18.0134 21.5997V21.9487L7.10278 19.1875L6.4856 19.0312V13.2562C6.4856 12.9978 6.58819 12.75 6.77084 12.5671C6.95348 12.3843 7.20124 12.2815 7.45966 12.2812H32.4909H32.4893Z" fill="#0A0A63"/>
</svg>
